<svg width="27" height="27" viewBox="0 0 27 27" fill="none" xmlns="http://www.w3.org/2000/svg">
<mask id="mask0_2098_205" style="mask-type:alpha" maskUnits="userSpaceOnUse" x="0" y="0" width="27" height="27">
<rect width="27" height="27" fill="#D9D9D9"/>
</mask>
<g mask="url(#mask0_2098_205)">
<path d="M3.9936 13.4999L12.2624 21.7687C12.5436 22.0499 12.6795 22.3781 12.6702 22.7531C12.6608 23.1281 12.5155 23.4562 12.2342 23.7374C11.953 24.0187 11.6249 24.1593 11.2499 24.1593C10.8749 24.1593 10.5467 24.0187 10.2655 23.7374L1.60298 15.1031C1.37798 14.8781 1.20923 14.6249 1.09673 14.3437C0.984229 14.0624 0.927979 13.7812 0.927979 13.4999C0.927979 13.2187 0.984229 12.9374 1.09673 12.6562C1.20923 12.3749 1.37798 12.1218 1.60298 11.8968L10.2655 3.23432C10.5467 2.95307 10.8795 2.81713 11.2639 2.8265C11.6483 2.83588 11.9811 2.98119 12.2624 3.26244C12.5436 3.54369 12.6842 3.87182 12.6842 4.24682C12.6842 4.62182 12.5436 4.94994 12.2624 5.23119L3.9936 13.4999Z" fill="#4DAC27"/>
</g>
</svg>
