<svg width="30" height="30" viewBox="0 0 30 30" fill="none" xmlns="http://www.w3.org/2000/svg">
<path fill-rule="evenodd" clip-rule="evenodd" d="M20 2.5C20.6904 2.5 21.25 3.05964 21.25 3.75L23.75 3.75C25.1307 3.75 26.25 4.86929 26.25 6.25V23.75C26.25 25.1307 25.1307 26.25 23.75 26.25H6.25C4.86929 26.25 3.75 25.1307 3.75 23.75V6.25C3.75 4.86929 4.86929 3.75 6.25 3.75H8.75C8.75 3.05964 9.30964 2.5 10 2.5C10.6904 2.5 11.25 3.05964 11.25 3.75L18.75 3.75C18.75 3.05964 19.3096 2.5 20 2.5ZM8.75 6.25C8.75 6.94036 9.30964 7.5 10 7.5C10.6904 7.5 11.25 6.94036 11.25 6.25H18.75C18.75 6.94036 19.3096 7.5 20 7.5C20.6904 7.5 21.25 6.94036 21.25 6.25H23.75V8.75L6.25 8.75V6.25H8.75ZM6.25 11.25V23.75H23.75V11.25L6.25 11.25Z" fill="#4DAC27"/>
</svg>
