<svg width="27" height="27" viewBox="0 0 27 27" fill="none" xmlns="http://www.w3.org/2000/svg">
<mask id="mask0_2098_223" style="mask-type:alpha" maskUnits="userSpaceOnUse" x="0" y="0" width="27" height="27">
<rect width="27" height="27" fill="#D9D9D9"/>
</mask>
<g mask="url(#mask0_2098_223)">
<path d="M11.25 9C10.9312 9 10.6641 8.89219 10.4484 8.67656C10.2328 8.46094 10.125 8.19375 10.125 7.875C10.125 7.55625 10.2328 7.28906 10.4484 7.07344C10.6641 6.85781 10.9312 6.75 11.25 6.75H15.75C16.0688 6.75 16.3359 6.85781 16.5516 7.07344C16.7672 7.28906 16.875 7.55625 16.875 7.875C16.875 8.19375 16.7672 8.46094 16.5516 8.67656C16.3359 8.89219 16.0688 9 15.75 9H11.25ZM7.875 24.75C7.25625 24.75 6.72656 24.5297 6.28594 24.0891C5.84531 23.6484 5.625 23.1187 5.625 22.5C5.625 21.8813 5.84531 21.3516 6.28594 20.9109C6.72656 20.4703 7.25625 20.25 7.875 20.25C8.49375 20.25 9.02344 20.4703 9.46406 20.9109C9.90469 21.3516 10.125 21.8813 10.125 22.5C10.125 23.1187 9.90469 23.6484 9.46406 24.0891C9.02344 24.5297 8.49375 24.75 7.875 24.75ZM19.125 24.75C18.5063 24.75 17.9766 24.5297 17.5359 24.0891C17.0953 23.6484 16.875 23.1187 16.875 22.5C16.875 21.8813 17.0953 21.3516 17.5359 20.9109C17.9766 20.4703 18.5063 20.25 19.125 20.25C19.7437 20.25 20.2734 20.4703 20.7141 20.9109C21.1547 21.3516 21.375 21.8813 21.375 22.5C21.375 23.1187 21.1547 23.6484 20.7141 24.0891C20.2734 24.5297 19.7437 24.75 19.125 24.75ZM3.375 4.5H2.25C1.93125 4.5 1.66406 4.39219 1.44844 4.17656C1.23281 3.96094 1.125 3.69375 1.125 3.375C1.125 3.05625 1.23281 2.78906 1.44844 2.57344C1.66406 2.35781 1.93125 2.25 2.25 2.25H4.10625C4.3125 2.25 4.50937 2.30625 4.69687 2.41875C4.88437 2.53125 5.025 2.69062 5.11875 2.89687L9.59062 12.375H17.4656L21.5437 5.0625C21.6375 4.875 21.7687 4.73438 21.9375 4.64062C22.1063 4.54688 22.2938 4.5 22.5 4.5C22.9312 4.5 23.2547 4.68281 23.4703 5.04844C23.6859 5.41406 23.6906 5.78438 23.4844 6.15938L19.4625 13.4437C19.2563 13.8187 18.9797 14.1094 18.6328 14.3156C18.2859 14.5219 17.9062 14.625 17.4937 14.625H9.1125L7.875 16.875H20.25C20.5688 16.875 20.8359 16.9828 21.0516 17.1984C21.2672 17.4141 21.375 17.6812 21.375 18C21.375 18.3188 21.2672 18.5859 21.0516 18.8016C20.8359 19.0172 20.5688 19.125 20.25 19.125H7.875C7.03125 19.125 6.38906 18.7594 5.94844 18.0281C5.50781 17.2969 5.49375 16.5563 5.90625 15.8063L7.425 13.05L3.375 4.5Z" fill="#4DAC27"/>
</g>
</svg>
