<svg width="30" height="30" viewBox="0 0 30 30" fill="none" xmlns="http://www.w3.org/2000/svg">
<path fill-rule="evenodd" clip-rule="evenodd" d="M2.50024 8.57109C2.50024 8.63411 2.50199 8.6966 2.50541 8.75857V20.6271C2.50541 22.9087 4.32248 24.6377 6.49083 25.7219C8.73395 26.8434 11.7453 27.5011 15.0033 27.5011C18.2613 27.5011 21.2727 26.8434 23.5158 25.7219C25.6842 24.6377 27.5012 22.9087 27.5012 20.6271V8.57016H27.4987C27.4984 7.4822 26.9785 6.55022 26.2543 5.81646C25.5353 5.08786 24.5567 4.48906 23.4462 4.01313C21.2208 3.05938 18.2336 2.5 14.9995 2.5C11.7653 2.5 8.77808 3.05938 6.55266 4.01313C5.44217 4.48906 4.46364 5.08786 3.74458 5.81646C3.02021 6.55043 2.50024 7.48273 2.50024 8.57109ZM5.52395 7.57255C5.11036 7.99161 5.00053 8.32728 5.00024 8.57016H5.00541V8.66344C5.03126 8.89665 5.15999 9.20085 5.52395 9.56963C5.94336 9.99461 6.61224 10.4347 7.53746 10.8312C9.38345 11.6223 12.0208 12.1422 14.9995 12.1422C17.9781 12.1422 20.6155 11.6223 22.4614 10.8312C23.3867 10.4347 24.0555 9.99461 24.475 9.56963C24.8891 9.15003 24.9987 8.81404 24.9987 8.57109C24.9987 8.32814 24.8891 7.99215 24.475 7.57255C24.0555 7.14757 23.3867 6.70752 22.4614 6.311C20.6155 5.51986 17.9781 5 14.9995 5C12.0208 5 9.38345 5.51986 7.53746 6.311C6.61224 6.70752 5.94336 7.14757 5.52395 7.57255ZM25.0012 12.3195C24.5268 12.6208 24.0031 12.8904 23.4462 13.129C21.2208 14.0828 18.2336 14.6422 14.9995 14.6422C11.7653 14.6422 8.77808 14.0828 6.55266 13.129C5.99882 12.8917 5.47779 12.6238 5.00541 12.3244V14.1954C5.00541 15.0199 5.70628 16.1028 7.60886 17.0541C9.43669 17.968 12.0493 18.5694 15.0033 18.5694C17.9574 18.5694 20.5699 17.968 22.3978 17.0541C24.3004 16.1028 25.0012 15.0199 25.0012 14.1954V12.3195ZM25.0012 18.3957C24.5401 18.7304 24.0382 19.029 23.5158 19.2902C21.2727 20.4117 18.2613 21.0694 15.0033 21.0694C11.7453 21.0694 8.73395 20.4117 6.49083 19.2902C5.96847 19.029 5.4665 18.7304 5.00541 18.3957V20.6271C5.00541 21.4516 5.70628 22.5345 7.60886 23.4858C9.43669 24.3997 12.0493 25.0011 15.0033 25.0011C17.9574 25.0011 20.5699 24.3997 22.3978 23.4858C24.3004 22.5345 25.0012 21.4516 25.0012 20.6271V18.3957Z" fill="#4DAC27"/>
</svg>
