<svg width="27" height="27" viewBox="0 0 27 27" fill="none" xmlns="http://www.w3.org/2000/svg">
<mask id="mask0_2098_199" style="mask-type:alpha" maskUnits="userSpaceOnUse" x="0" y="0" width="27" height="27">
<rect width="27" height="27" fill="#D9D9D9"/>
</mask>
<g mask="url(#mask0_2098_199)">
<path d="M6.75 21.375H10.125V15.75C10.125 15.4312 10.2328 15.1641 10.4484 14.9484C10.6641 14.7328 10.9313 14.625 11.25 14.625H15.75C16.0688 14.625 16.3359 14.7328 16.5516 14.9484C16.7672 15.1641 16.875 15.4312 16.875 15.75V21.375H20.25V11.25L13.5 6.1875L6.75 11.25V21.375ZM4.5 21.375V11.25C4.5 10.8938 4.57969 10.5563 4.73906 10.2375C4.89844 9.91875 5.11875 9.65625 5.4 9.45L12.15 4.3875C12.5437 4.0875 12.9937 3.9375 13.5 3.9375C14.0063 3.9375 14.4563 4.0875 14.85 4.3875L21.6 9.45C21.8813 9.65625 22.1016 9.91875 22.2609 10.2375C22.4203 10.5563 22.5 10.8938 22.5 11.25V21.375C22.5 21.9937 22.2797 22.5234 21.8391 22.9641C21.3984 23.4047 20.8687 23.625 20.25 23.625H15.75C15.4312 23.625 15.1641 23.5172 14.9484 23.3016C14.7328 23.0859 14.625 22.8188 14.625 22.5V16.875H12.375V22.5C12.375 22.8188 12.2672 23.0859 12.0516 23.3016C11.8359 23.5172 11.5687 23.625 11.25 23.625H6.75C6.13125 23.625 5.60156 23.4047 5.16094 22.9641C4.72031 22.5234 4.5 21.9937 4.5 21.375Z" fill="#4DAC27"/>
</g>
</svg>
