<svg width="25" height="24" viewBox="0 0 25 24" fill="none" xmlns="http://www.w3.org/2000/svg">
<g clip-path="url(#clip0_4016_42)">
<path d="M12.6953 14.9918C11.0385 14.9918 9.69531 16.335 9.69531 17.9918V23.9918H15.6953V17.9918C15.6953 16.335 14.3522 14.9918 12.6953 14.9918Z" fill="#4DAC27"/>
<path d="M17.6953 17.9923V23.9923H21.6953C23.3522 23.9923 24.6953 22.6491 24.6953 20.9923V11.8713C24.6955 11.3518 24.4937 10.8525 24.1323 10.4793L15.6343 1.29224C14.1349 -0.330101 11.6042 -0.42971 9.98186 1.06973C9.9048 1.14098 9.83055 1.21518 9.75934 1.29224L1.27633 10.4763C0.904047 10.8511 0.695172 11.358 0.695313 11.8863V20.9923C0.695313 22.6491 2.03847 23.9923 3.69531 23.9923H7.6953V17.9923C7.714 15.2654 9.91558 13.0387 12.5737 12.9746C15.3208 12.9083 17.6744 15.173 17.6953 17.9923Z" fill="#4DAC27"/>
<path d="M12.6953 14.9918C11.0385 14.9918 9.69531 16.335 9.69531 17.9918V23.9918H15.6953V17.9918C15.6953 16.335 14.3522 14.9918 12.6953 14.9918Z" fill="#4DAC27"/>
</g>
<defs>
<clipPath id="clip0_4016_42">
<rect width="24" height="24" fill="white" transform="translate(0.695312)"/>
</clipPath>
</defs>
</svg>
