<svg width="56" height="57" viewBox="0 0 56 57" fill="none" xmlns="http://www.w3.org/2000/svg">
<g clip-path="url(#clip0_2103_761)">
<path d="M39.5297 0H16.4708C7.37438 0 0.000244141 7.50581 0.000244141 16.7647V40.2353C0.000244141 49.4942 7.37438 57 16.4708 57H39.5297C48.6261 57 56.0002 49.4942 56.0002 40.2353V16.7647C56.0002 7.50581 48.6261 0 39.5297 0Z" fill="#EBF4FF"/>
<path d="M27.3449 40.1558C26.7967 40.0753 26.2571 39.9429 25.7332 39.7601L25.6966 39.7471L22.8795 38.6349L22.793 38.6157C22.228 38.4851 22.11 38.4586 20.9909 38.9867C20.9173 39.0214 20.8377 39.0411 20.7567 39.0445C20.6756 39.0479 20.5947 39.035 20.5186 39.0066C20.4424 38.9782 20.3725 38.9348 20.3128 38.8789C20.2531 38.8229 20.2049 38.7556 20.1708 38.6807C20.1018 38.5299 20.0943 38.3574 20.15 38.201C20.2058 38.0446 20.3201 37.917 20.468 37.8463C21.8529 37.1926 22.2362 37.1991 23.0621 37.3893L23.1913 37.4189L23.2374 37.4289L26.1244 38.5667C26.6666 38.805 27.2505 38.9297 27.8411 38.9332C28.4317 38.9368 29.0169 38.8193 29.5619 38.5876L38.5944 33.8672C38.8113 33.7343 38.968 33.5196 39.0304 33.2699C39.0928 33.0202 39.056 32.7554 38.9279 32.5331C38.7977 32.3094 38.586 32.147 38.3388 32.0813C38.0916 32.0156 37.8289 32.052 37.6078 32.1824L37.5661 32.205C37.4858 32.2448 35.5862 33.1838 35.0048 33.4498C34.8553 33.5186 34.6851 33.5242 34.5317 33.4652C34.3782 33.4063 34.254 33.2877 34.1864 33.1356C34.1189 32.9834 34.1134 32.8102 34.1713 32.654C34.2292 32.4978 34.3457 32.3714 34.4952 32.3026C35.03 32.0578 36.7989 31.1844 37.0045 31.0834C37.5084 30.7919 38.1048 30.7139 38.6648 30.8664C39.2247 31.0189 39.7032 31.3895 39.9968 31.8982C40.1429 32.152 40.2384 32.4327 40.2778 32.7242C40.3171 33.0156 40.2996 33.3121 40.2262 33.5967C40.1528 33.8812 40.025 34.1482 39.85 34.3824C39.6751 34.6166 39.4564 34.8133 39.2067 34.9614L39.1774 34.9771L30.0749 39.7344L30.0478 39.7453C29.1978 40.1211 28.2657 40.2627 27.3449 40.1558Z" fill="#070203"/>
<path d="M18.4604 33.6749C18.3677 33.6635 18.2788 33.6308 18.2004 33.5793C18.1219 33.5278 18.056 33.4589 18.0075 33.3777C17.9225 33.2352 17.8966 33.0642 17.9354 32.9023C17.9743 32.7404 18.0747 32.6008 18.2146 32.5142L24.819 28.4228L24.8489 28.4088C25.3034 28.1929 25.8008 28.0869 26.3023 28.0994C26.8037 28.1118 27.2956 28.2422 27.7392 28.4804L31.9034 30.6966C32.1401 30.8376 32.3468 31.0254 32.511 31.249C32.6753 31.4726 32.7939 31.7275 32.8598 31.9985C32.9248 32.264 32.9369 32.5401 32.8954 32.8105C32.854 33.0809 32.7598 33.3401 32.6185 33.5729C32.3284 34.0441 31.8695 34.3819 31.339 34.5148C30.8086 34.6478 30.2481 34.5654 29.7762 34.2852L27.0274 32.8133C26.9523 32.7768 26.8852 32.7251 26.8302 32.6615C26.7753 32.5979 26.7335 32.5237 26.7074 32.4432C26.6813 32.3627 26.6715 32.2777 26.6785 32.1933C26.6855 32.1089 26.7092 32.0268 26.7481 31.9519C26.7871 31.877 26.8405 31.811 26.9052 31.7576C26.9699 31.7043 27.0445 31.6649 27.1246 31.6416C27.2046 31.6184 27.2885 31.6119 27.3711 31.6225C27.4537 31.6331 27.5333 31.6605 27.6052 31.7032L30.3888 33.203C30.5822 33.3219 30.8137 33.3588 31.0335 33.3059C31.2533 33.253 31.444 33.1145 31.5646 32.9201C31.6204 32.8287 31.6576 32.7268 31.674 32.6205C31.6903 32.5142 31.6856 32.4056 31.6601 32.3012C31.634 32.1943 31.5874 32.0936 31.5231 32.005C31.4587 31.9164 31.3779 31.8415 31.2851 31.7848L27.1628 29.5932C26.8929 29.4477 26.5939 29.3666 26.2887 29.3563C25.9834 29.3459 25.6798 29.4065 25.401 29.5335L18.855 33.5883C18.7367 33.6615 18.5977 33.6921 18.4604 33.6749Z" fill="#070203"/>
<path d="M18.2743 32.3719C17.7814 31.1897 16.4404 30.6381 15.2792 31.1398C14.1181 31.6415 13.5764 33.0065 14.0694 34.1886L16.7466 40.6083C17.2395 41.7905 18.5805 42.3421 19.7417 41.8404C20.9028 41.3387 21.4445 39.9737 20.9515 38.7916L18.2743 32.3719Z" fill="#EBF4FF"/>
<path d="M15.7622 32.2971C15.5062 32.408 15.3039 32.6177 15.1997 32.8802C15.0955 33.1428 15.0979 33.4367 15.2064 33.6974L17.8839 40.1179C17.935 40.2508 18.0119 40.372 18.1098 40.4741C18.2078 40.5763 18.3248 40.6575 18.4541 40.7128C18.5834 40.7681 18.7223 40.7965 18.8626 40.7963C19.0028 40.796 19.1416 40.7671 19.2707 40.7114C19.3998 40.6556 19.5166 40.574 19.6142 40.4715C19.7118 40.369 19.7882 40.2476 19.8389 40.1145C19.8897 39.9814 19.9136 39.8393 19.9095 39.6966C19.9053 39.5539 19.8731 39.4135 19.8147 39.2837L17.1371 32.8632C17.0283 32.6028 16.8224 32.3969 16.5647 32.2908C16.3069 32.1847 16.0183 32.187 15.7622 32.2971ZM15.2795 31.1397C15.8372 30.899 16.4659 30.8936 17.0275 31.1247C17.5891 31.3558 18.0376 31.8044 18.2742 32.3719L20.9518 38.7924C21.0757 39.0746 21.1431 39.3791 21.1501 39.688C21.1571 39.997 21.1034 40.3043 20.9924 40.592C20.8813 40.8797 20.715 41.1419 20.5032 41.3634C20.2914 41.5848 20.0383 41.7611 19.7588 41.8819C19.4793 42.0026 19.179 42.0655 18.8753 42.0667C18.5717 42.0679 18.2708 42.0075 17.9904 41.889C17.7099 41.7705 17.4555 41.5963 17.242 41.3766C17.0284 41.1568 16.8601 40.8959 16.7468 40.6092L14.0693 34.1887C13.8325 33.621 13.827 32.9809 14.054 32.4091C14.281 31.8373 14.7218 31.3807 15.2795 31.1397Z" fill="black"/>
<path d="M29.7568 16.8971C29.6668 16.8969 29.5769 16.9017 29.4875 16.9114H29.4826C28.9484 16.9388 28.4357 17.1335 28.0144 17.4689C27.5931 17.8042 27.2838 18.2638 27.1289 18.7848C26.9377 19.3232 26.8879 19.903 26.9844 20.4669C27.0809 21.0309 27.3203 21.5594 27.679 22.0003L32.6326 26.5033C32.6747 26.5436 32.7304 26.5661 32.7882 26.5661C32.846 26.5661 32.9017 26.5436 32.9439 26.5033L37.8974 21.9986C38.2561 21.5578 38.4956 21.0292 38.592 20.4653C38.6885 19.9013 38.6387 19.3215 38.4475 18.7832C38.2922 18.2621 37.9824 17.8025 37.5607 17.4675C37.1389 17.1324 36.6257 16.9382 36.0914 16.9114C36.0011 16.9016 35.9104 16.8969 35.8196 16.8971C35.4226 16.9045 35.0311 16.9922 34.6677 17.1551C34.3044 17.318 33.9765 17.5529 33.7031 17.846C33.5846 17.9691 33.4431 18.0669 33.287 18.1336C33.1309 18.2004 32.9633 18.2347 32.794 18.2347C32.6246 18.2347 32.457 18.2004 32.3009 18.1336C32.1448 18.0669 32.0033 17.9691 31.8848 17.846C31.6102 17.5514 31.2805 17.3156 30.915 17.1527C30.5495 16.9897 30.1557 16.9028 29.7568 16.8971ZM29.7568 15.6398C30.3196 15.6461 30.8754 15.7671 31.3915 15.9956C31.9076 16.224 32.3736 16.5554 32.7619 16.9701C32.769 16.9773 32.7786 16.9813 32.7886 16.9813C32.7987 16.9813 32.8083 16.9773 32.8154 16.9701C33.2036 16.5555 33.6694 16.2242 34.1853 15.9957C34.7013 15.7672 35.257 15.6462 35.8196 15.6398C35.9539 15.6394 36.088 15.6464 36.2215 15.6607C40.2659 16.0882 40.685 21.0824 38.73 22.9291L33.7666 27.4421C33.4981 27.6879 33.1497 27.8239 32.7886 27.8239C32.4275 27.8239 32.0792 27.6879 31.8107 27.4421L26.8464 22.9324C24.8914 21.0824 25.3106 16.0882 29.3549 15.6607C29.4884 15.6464 29.6226 15.6394 29.7568 15.6398Z" fill="#5055B1"/>
</g>
<defs>
<clipPath id="clip0_2103_761">
<rect width="56" height="57" fill="white" transform="translate(0.000244141)"/>
</clipPath>
</defs>
</svg>
