<svg width="56" height="56" viewBox="0 0 56 56" fill="none" xmlns="http://www.w3.org/2000/svg">
<g clip-path="url(#clip0_2103_812)">
<path d="M39.5297 0H16.4708C7.37438 0 0.000244141 7.37413 0.000244141 16.4706V39.5294C0.000244141 48.6259 7.37438 56 16.4708 56H39.5297C48.6261 56 56.0002 48.6259 56.0002 39.5294V16.4706C56.0002 7.37413 48.6261 0 39.5297 0Z" fill="#EBF4FF"/>
<path d="M19.765 39.5294C19.1098 39.5294 18.4814 39.2689 18.018 38.8056C17.5547 38.3423 17.2944 37.7141 17.2944 37.0588V17.2941H17.3232C17.4222 16.6082 17.7651 15.981 18.2891 15.5272C18.813 15.0735 19.4829 14.8236 20.176 14.8235H34.7928C34.9566 14.8235 35.1137 14.8887 35.2295 15.0045C35.3454 15.1203 35.4104 15.2774 35.4104 15.4412C35.4104 15.605 35.3454 15.7621 35.2295 15.8779C35.1137 15.9937 34.9566 16.0588 34.7928 16.0588H34.5886V19.353H36.2356C36.8909 19.353 37.5193 19.6134 37.9826 20.0768C38.4459 20.5401 38.7062 21.1683 38.7062 21.8235V37.0588C38.7062 37.7141 38.4459 38.3423 37.9826 38.8056C37.5193 39.2689 36.8909 39.5294 36.2356 39.5294H19.765ZM18.5297 37.0588C18.5297 37.3865 18.6599 37.7006 18.8915 37.9322C19.1232 38.1639 19.4374 38.2941 19.765 38.2941H36.2356C36.5632 38.2941 36.8774 38.1639 37.1091 37.9322C37.3408 37.7006 37.4709 37.3865 37.4709 37.0588V21.8235C37.4709 21.4959 37.3408 21.1818 37.1091 20.9502C36.8774 20.7185 36.5632 20.5883 36.2356 20.5883H20.1768C19.5877 20.589 19.0126 20.4085 18.5297 20.0711V37.0588ZM34.5886 19.353V16.0588H20.1768C19.74 16.0588 19.321 16.2325 19.0122 16.5414C18.7033 16.8503 18.5297 17.2691 18.5297 17.7059C18.5297 18.1427 18.7033 18.5615 19.0122 18.8704C19.321 19.1793 19.74 19.353 20.1768 19.353H34.5886Z" fill="black"/>
<path d="M28.0019 25.1176C27.7138 25.1186 27.4325 25.2049 27.1935 25.3657C26.9544 25.5264 26.7683 25.7544 26.6588 26.0209C26.5492 26.2873 26.521 26.5802 26.5778 26.8627C26.6346 27.1451 26.7739 27.4044 26.9779 27.6077C27.182 27.8111 27.4417 27.9494 27.7243 28.0053C28.0069 28.0611 28.2998 28.0319 28.5658 27.9215C28.8319 27.811 29.0592 27.6242 29.2192 27.3846C29.3791 27.145 29.4645 26.8634 29.4645 26.5753C29.4634 26.1882 29.3088 25.8173 29.0346 25.544C28.7604 25.2707 28.389 25.1174 28.0019 25.1176ZM28.0019 23.8823C28.5343 23.8835 29.0544 24.0424 29.4965 24.339C29.9386 24.6356 30.2828 25.0565 30.4858 25.5487C30.6887 26.0409 30.7412 26.5822 30.6367 27.1042C30.5321 27.6262 30.2752 28.1055 29.8983 28.4815C29.5215 28.8575 29.0416 29.1134 28.5194 29.2169C27.9972 29.3203 27.456 29.2667 26.9643 29.0627C26.4726 28.8587 26.0523 28.5135 25.7567 28.0708C25.461 27.6281 25.3032 27.1076 25.3032 26.5753C25.3035 26.2212 25.3736 25.8707 25.5094 25.5438C25.6452 25.2168 25.8441 24.9198 26.0947 24.6698C26.3453 24.4197 26.6428 24.2214 26.97 24.0863C27.2972 23.9512 27.6479 23.8819 28.0019 23.8823Z" fill="#5055B1"/>
<path d="M25.9184 30.9441C25.4882 30.9441 25.0757 31.1147 24.7712 31.4186C24.4667 31.7224 24.2952 32.1347 24.2944 32.5648C24.2945 32.617 24.3049 32.6687 24.325 32.717C24.3451 32.7652 24.3744 32.809 24.4115 32.8458C24.4485 32.8827 24.4924 32.9119 24.5407 32.9318C24.589 32.9517 24.6407 32.9619 24.693 32.9617H31.31C31.3623 32.9619 31.414 32.9517 31.4623 32.9318C31.5106 32.9119 31.5545 32.8827 31.5915 32.8458C31.6285 32.809 31.6579 32.7652 31.678 32.717C31.6981 32.6687 31.7085 32.617 31.7086 32.5648C31.7077 32.1347 31.5363 31.7224 31.2318 31.4186C30.9273 31.1147 30.5148 30.9441 30.0846 30.9441H25.9184ZM25.9184 29.7088H30.0846C30.8421 29.709 31.5685 30.01 32.1042 30.5455C32.6398 31.081 32.941 31.8073 32.9414 32.5648C32.9413 32.7793 32.899 32.9916 32.8168 33.1897C32.7346 33.3878 32.6143 33.5677 32.4625 33.7193C32.3108 33.8709 32.1307 33.9911 31.9326 34.073C31.7344 34.155 31.522 34.1971 31.3076 34.197H24.693C24.4785 34.1971 24.2661 34.155 24.068 34.073C23.8698 33.9911 23.6897 33.8709 23.538 33.7193C23.3863 33.5677 23.2659 33.3878 23.1837 33.1897C23.1015 32.9916 23.0592 32.7793 23.0591 32.5648C23.0593 32.1895 23.1334 31.818 23.2772 31.4714C23.421 31.1247 23.6317 30.8098 23.8972 30.5446C24.1627 30.2794 24.4779 30.0691 24.8247 29.9257C25.1715 29.7823 25.5431 29.7086 25.9184 29.7088Z" fill="#5055B1"/>
</g>
<defs>
<clipPath id="clip0_2103_812">
<rect width="56" height="56" fill="white" transform="translate(0.000244141)"/>
</clipPath>
</defs>
</svg>
