<svg width="56" height="56" viewBox="0 0 56 56" fill="none" xmlns="http://www.w3.org/2000/svg">
<g clip-path="url(#clip0_2103_795)">
<path d="M39.5294 0H16.4706C7.37413 0 0 7.37413 0 16.4706V39.5294C0 48.6259 7.37413 56 16.4706 56H39.5294C48.6259 56 56 48.6259 56 39.5294V16.4706C56 7.37413 48.6259 0 39.5294 0Z" fill="#EBF4FF"/>
<path d="M18.9411 19.3529C18.3951 19.3529 17.8714 19.5698 17.4853 19.9559C17.0992 20.342 16.8823 20.8657 16.8823 21.4117V33.7647C16.8823 34.3107 17.0992 34.8344 17.4853 35.2205C17.8714 35.6066 18.3951 35.8235 18.9411 35.8235H37.0587C37.6048 35.8235 38.1284 35.6066 38.5145 35.2205C38.9007 34.8344 39.1176 34.3107 39.1176 33.7647V21.4117C39.1176 20.8657 38.9007 20.342 38.5145 19.9559C38.1284 19.5698 37.6048 19.3529 37.0587 19.3529H18.9411ZM18.9411 18.1176H37.0587C37.9324 18.1176 38.7703 18.4647 39.388 19.0824C40.0058 19.7002 40.3529 20.5381 40.3529 21.4117V33.7647C40.3529 34.6383 40.0058 35.4762 39.388 36.094C38.7703 36.7117 37.9324 37.0588 37.0587 37.0588H18.9411C18.0674 37.0588 17.2296 36.7117 16.6118 36.094C15.994 35.4762 15.647 34.6383 15.647 33.7647V21.4117C15.647 20.5381 15.994 19.7002 16.6118 19.0824C17.2296 18.4647 18.0674 18.1176 18.9411 18.1176Z" fill="black"/>
<path d="M28.2058 25.5294H16.2646C15.9235 25.5294 15.647 25.8059 15.647 26.147C15.647 26.4881 15.9235 26.7647 16.2646 26.7647H28.2058C28.5469 26.7647 28.8234 26.4881 28.8234 26.147C28.8234 25.8059 28.5469 25.5294 28.2058 25.5294Z" fill="black"/>
<path d="M24.7734 19.5588C24.7734 19.2177 24.4969 18.9412 24.1557 18.9412C23.8146 18.9412 23.5381 19.2177 23.5381 19.5588V35.6176C23.5381 35.9587 23.8146 36.2353 24.1557 36.2353C24.4969 36.2353 24.7734 35.9587 24.7734 35.6176V19.5588Z" fill="black"/>
<path d="M36.4634 29.955H34.4869C34.3201 29.9626 34.1571 29.9038 34.0336 29.7914C33.9101 29.679 33.8362 29.5223 33.8281 29.3555C33.8362 29.1887 33.9101 29.032 34.0336 28.9196C34.1571 28.8072 34.3201 28.7484 34.4869 28.756H36.4634C36.6302 28.7484 36.7932 28.8072 36.9167 28.9196C37.0402 29.032 37.1141 29.1887 37.1222 29.3555C37.1141 29.5223 37.0402 29.679 36.9167 29.7914C36.7932 29.9038 36.6302 29.9626 36.4634 29.955Z" fill="black"/>
<path d="M36.647 32.3894H32.8036C32.649 32.3799 32.5046 32.3095 32.4016 32.1938C32.2987 32.0781 32.2458 31.9264 32.2543 31.7718C32.2458 31.6171 32.2987 31.4654 32.4016 31.3497C32.5046 31.234 32.649 31.1637 32.8036 31.1541H36.647C36.8016 31.1637 36.9461 31.234 37.049 31.3497C37.1519 31.4654 37.2049 31.6171 37.1963 31.7718C37.2049 31.9264 37.1519 32.0781 37.049 32.1938C36.9461 32.3095 36.8016 32.3799 36.647 32.3894Z" fill="black"/>
<path d="M21.2191 30.198C21.101 30.1979 20.9854 30.164 20.886 30.1002C20.7866 30.0365 20.7075 29.9455 20.6582 29.8383C20.6089 29.731 20.5914 29.6118 20.6078 29.4949C20.6241 29.3779 20.6736 29.2681 20.7504 29.1784L23.9869 25.3984C24.0939 25.2753 24.2452 25.1995 24.4078 25.1875C24.5705 25.1755 24.7312 25.2284 24.8551 25.3345C24.9789 25.4406 25.0557 25.5914 25.0688 25.754C25.0819 25.9165 25.0302 26.0777 24.9249 26.2022L21.6884 29.9822C21.6305 30.05 21.5585 30.1044 21.4774 30.1417C21.3964 30.1789 21.3083 30.1981 21.2191 30.198Z" fill="#5055B1"/>
<path d="M27.4539 30.1979C27.369 30.198 27.2851 30.1806 27.2073 30.1467C27.1295 30.1129 27.0595 30.0633 27.0018 30.0011L23.6253 26.3776C23.5701 26.3181 23.5271 26.2483 23.4988 26.1722C23.4705 26.0961 23.4574 26.0152 23.4604 25.9341C23.4634 25.8529 23.4824 25.7732 23.5162 25.6994C23.55 25.6255 23.5979 25.5591 23.6574 25.5038C23.7169 25.4486 23.7867 25.4056 23.8628 25.3773C23.9389 25.349 24.0198 25.3359 24.1009 25.3389C24.1821 25.3419 24.2619 25.3608 24.3357 25.3946C24.4095 25.4285 24.4759 25.4765 24.5312 25.5359L27.9077 29.1595C27.9896 29.2475 28.0441 29.3576 28.0644 29.4761C28.0847 29.5947 28.0699 29.7166 28.0219 29.8268C27.9738 29.9371 27.8947 30.031 27.7941 30.0969C27.6935 30.1628 27.5759 30.1979 27.4556 30.1979H27.4539Z" fill="#5055B1"/>
<path d="M22.4528 27.239C22.0555 27.5902 21.5435 27.7838 21.0133 27.7834C20.4199 27.776 19.8537 27.5333 19.4392 27.1086C19.0248 26.6839 18.7959 26.1121 18.8029 25.5187C18.7993 25.2248 18.8536 24.9332 18.9628 24.6603C19.0719 24.3875 19.2337 24.1388 19.439 23.9285C19.6442 23.7182 19.8889 23.5504 20.159 23.4347C20.4291 23.3189 20.7194 23.2575 21.0133 23.254C21.5525 23.2542 22.0724 23.4549 22.4717 23.8173L24.5676 25.5129L22.4528 27.239Z" fill="#EBF4FF"/>
<path d="M22.6093 25.517L21.6951 24.7759C21.6781 24.7621 21.6616 24.7481 21.6457 24.7339C21.473 24.576 21.2473 24.4887 21.0133 24.4893C20.7476 24.4968 20.4957 24.6094 20.3129 24.8024C20.1301 24.9954 20.0313 25.253 20.0382 25.5187C20.0315 25.7843 20.1304 26.0418 20.3132 26.2347C20.4959 26.4277 20.7476 26.5403 21.0133 26.5481C21.2433 26.5482 21.4653 26.4635 21.6367 26.3101C21.6641 26.2859 21.6916 26.2632 21.719 26.2417L22.6068 25.517M24.5676 25.5129L22.4528 27.239C22.0555 27.5902 21.5435 27.7838 21.0133 27.7834C20.4199 27.776 19.8537 27.5333 19.4392 27.1086C19.0248 26.6839 18.7959 26.1121 18.8029 25.5187C18.7993 25.2248 18.8536 24.9332 18.9628 24.6603C19.0719 24.3875 19.2337 24.1388 19.439 23.9285C19.6442 23.7182 19.8889 23.5504 20.159 23.4347C20.4291 23.3189 20.7194 23.2575 21.0133 23.254C21.5525 23.2542 22.0724 23.4549 22.4717 23.8173L24.5676 25.5129Z" fill="#5055B1"/>
<path d="M25.8587 27.239C26.256 27.5902 26.768 27.7838 27.2982 27.7834C27.8916 27.776 28.4578 27.5333 28.8723 27.1086C29.2868 26.6839 29.5156 26.1121 29.5086 25.5187C29.5122 25.2248 29.4579 24.9332 29.3487 24.6603C29.2396 24.3875 29.0778 24.1388 28.8725 23.9285C28.6673 23.7182 28.4226 23.5504 28.1525 23.4347C27.8824 23.3189 27.5921 23.2575 27.2982 23.254C26.759 23.2542 26.2391 23.4549 25.8398 23.8173L23.7439 25.5129L25.8587 27.239Z" fill="#EBF4FF"/>
<path d="M25.7022 25.517L26.59 26.2417C26.6191 26.2632 26.6466 26.2859 26.6724 26.3101C26.8438 26.4635 27.0658 26.5482 27.2958 26.5481C27.5618 26.541 27.8142 26.4286 27.9975 26.2356C28.1807 26.0426 28.2799 25.7848 28.2733 25.5187C28.2802 25.253 28.1814 24.9954 27.9986 24.8024C27.8158 24.6094 27.5639 24.4968 27.2982 24.4893C27.0642 24.4896 26.8387 24.5777 26.6666 24.7363C26.6507 24.7512 26.6342 24.7652 26.6172 24.7783L25.7031 25.5195M23.7439 25.5129L25.8398 23.8173C26.2391 23.4549 26.759 23.2542 27.2982 23.254C27.5921 23.2575 27.8824 23.3189 28.1525 23.4347C28.4226 23.5504 28.6673 23.7182 28.8725 23.9285C29.0778 24.1388 29.2396 24.3875 29.3487 24.6603C29.4579 24.9332 29.5122 25.2248 29.5086 25.5187C29.5156 26.1121 29.2868 26.6839 28.8723 27.1086C28.4578 27.5333 27.8916 27.776 27.2982 27.7834C26.7678 27.7834 26.2557 27.5891 25.8587 27.2374L23.7439 25.5129Z" fill="#5055B1"/>
</g>
<defs>
<clipPath id="clip0_2103_795">
<rect width="56" height="56" fill="white"/>
</clipPath>
</defs>
</svg>
