<svg width="57" height="56" viewBox="0 0 57 56" fill="none" xmlns="http://www.w3.org/2000/svg">
<g clip-path="url(#clip0_2103_739)">
<path d="M40.2353 0H16.7647C7.50581 0 0 7.37413 0 16.4706V39.5294C0 48.6259 7.50581 56 16.7647 56H40.2353C49.4942 56 57 48.6259 57 39.5294V16.4706C57 7.37413 49.4942 0 40.2353 0Z" fill="#EBF4FF"/>
<mask id="mask0_2103_739" style="mask-type:luminance" maskUnits="userSpaceOnUse" x="15" y="15" width="27" height="26">
<path d="M41.0736 15.647H15.9265V40.3529H41.0736V15.647Z" fill="white"/>
</mask>
<g mask="url(#mask0_2103_739)">
<path d="M28.5092 17.4991C26.3971 17.4991 24.3324 18.1145 22.5762 19.2673C20.82 20.4202 19.4513 22.0588 18.643 23.9759C17.8347 25.893 17.6232 28.0025 18.0353 30.0378C18.4473 32.073 19.4644 33.9424 20.9579 35.4097C22.4514 36.877 24.3543 37.8763 26.4258 38.2811C28.4974 38.6859 30.6446 38.4781 32.5959 37.684C34.5473 36.8899 36.2151 35.5452 37.3886 33.8198C38.562 32.0945 39.1883 30.066 39.1883 27.9909C39.1883 25.2083 38.0632 22.5397 36.0605 20.5721C34.0578 18.6045 31.3415 17.4991 28.5092 17.4991ZM24.4287 27.9909C24.4287 27.1982 24.6679 26.4233 25.1162 25.7641C25.5645 25.105 26.2017 24.5913 26.9471 24.2879C27.6926 23.9845 28.5129 23.9052 29.3043 24.0598C30.0957 24.2145 30.8226 24.5962 31.3931 25.1567C31.9637 25.7173 32.3522 26.4315 32.5097 27.209C32.6671 27.9865 32.5863 28.7924 32.2775 29.5248C31.9687 30.2571 31.4458 30.8831 30.7749 31.3235C30.104 31.764 29.3152 31.999 28.5084 31.999C27.4264 31.999 26.3887 31.5767 25.6236 30.8251C24.8585 30.0734 24.4287 29.0539 24.4287 27.9909Z" stroke="black" stroke-width="1.5" stroke-miterlimit="10"/>
<path d="M28.5101 26.9442C28.2996 26.9442 28.0937 27.0056 27.9187 27.1205C27.7436 27.2354 27.6072 27.3987 27.5266 27.5899C27.446 27.781 27.4249 27.9913 27.466 28.1941C27.5071 28.397 27.6085 28.5834 27.7574 28.7296C27.9062 28.8759 28.0959 28.9755 28.3024 29.0159C28.5089 29.0562 28.723 29.0355 28.9175 28.9564C29.112 28.8772 29.2783 28.7431 29.3953 28.5712C29.5122 28.3992 29.5747 28.1969 29.5747 27.9901C29.5747 27.7127 29.4625 27.4467 29.2629 27.2505C29.0632 27.0544 28.7925 26.9442 28.5101 26.9442Z" fill="#5055B1"/>
<path d="M20.3289 26.0696C20.2994 26.1717 20.231 26.2587 20.1378 26.3124C20.0446 26.3661 19.9339 26.3824 19.8288 26.3579C19.7237 26.3333 19.6323 26.2699 19.5737 26.1807C19.515 26.0916 19.4937 25.9836 19.5142 25.8794C19.8358 24.5602 20.4535 23.3284 21.3221 22.274C22.1907 21.2196 23.2882 20.3693 24.5343 19.7853C24.633 19.7472 24.7426 19.7473 24.8412 19.7855C24.9398 19.8236 25.02 19.8971 25.0657 19.991C25.1114 20.085 25.1192 20.1924 25.0875 20.2918C25.0557 20.3911 24.9869 20.475 24.8948 20.5265C23.7593 21.0544 22.7594 21.8267 21.969 22.7859C21.1786 23.7452 20.6181 24.8669 20.3289 26.068" fill="#5055B1"/>
<path d="M22.2542 25.8489C22.2156 25.9494 22.1386 26.0312 22.0396 26.0767C21.9405 26.1222 21.8273 26.1279 21.7241 26.0926C21.6208 26.0572 21.5357 25.9836 21.4869 25.8875C21.4381 25.7913 21.4295 25.6803 21.4629 25.578C21.9659 24.158 22.9026 22.9251 24.1453 22.0475C24.2355 21.9888 24.3453 21.9667 24.4517 21.9858C24.5582 22.0049 24.653 22.0636 24.7163 22.1498C24.7796 22.236 24.8066 22.3429 24.7916 22.4481C24.7765 22.5534 24.7207 22.6488 24.6356 22.7146C23.5327 23.4937 22.7013 24.5883 22.255 25.8489" fill="#5055B1"/>
</g>
</g>
<defs>
<clipPath id="clip0_2103_739">
<rect width="57" height="56" fill="white"/>
</clipPath>
</defs>
</svg>
