<svg width="57" height="57" viewBox="0 0 57 57" fill="none" xmlns="http://www.w3.org/2000/svg">
<g clip-path="url(#clip0_2103_830)">
<path d="M40.2355 0H16.7649C7.50606 0 0.000244141 7.50581 0.000244141 16.7647V40.2353C0.000244141 49.4942 7.50606 57 16.7649 57H40.2355C49.4944 57 57.0002 49.4942 57.0002 40.2353V16.7647C57.0002 7.50581 49.4944 0 40.2355 0Z" fill="#EBF4FF"/>
<mask id="mask0_2103_830" style="mask-type:luminance" maskUnits="userSpaceOnUse" x="22" y="19" width="20" height="22">
<path d="M26.7733 40.6258H34.9495C34.9495 40.6258 34.9151 37.8957 34.9495 37.7943C34.9839 37.6928 34.9428 33.64 34.9495 33.5017C34.9562 33.3634 34.9495 29.8595 34.9495 29.8595L38.0987 30.4019L41.9127 27.7539L38.0987 21.4672L30.511 20.0974L23.1547 19.3313L22.7397 37.3752V39.1656L26.7733 40.6258Z" fill="white"/>
</mask>
<g mask="url(#mask0_2103_830)">
<path d="M37.2722 23.4571C37.2915 23.7085 37.3519 23.9215 37.356 24.1897C37.8247 24.18 38.2915 24.2514 38.7358 24.4009L38.7626 24.4596C38.6645 23.68 38.2119 22.5526 37.3292 22.6054C37.2937 22.888 37.2746 23.1723 37.2722 23.4571Z" fill="#070203"/>
<path d="M32.392 29.3457L32.4331 29.3214C32.5683 29.383 32.717 29.4092 32.8651 29.3974C33.0132 29.3857 33.1559 29.3364 33.2797 29.2543L33.133 29.1068C32.7608 29.2686 32.641 28.9886 32.641 28.9886C32.5097 28.8368 32.416 28.6563 32.3675 28.4616C32.319 28.2669 32.3171 28.0635 32.3618 27.8679L32.2688 28.0598C32.1575 28.2554 32.1049 28.4789 32.1171 28.7036C31.1355 29.2845 27.096 32.256 27.1061 40.9879V41.1363H19.3491V18.3958H35.8355V20.473H35.8808C35.9478 20.473 36.0115 20.4788 36.0761 20.483V18.1536H19.1077V41.3777H36.0769V30.3843L36.0551 30.3792C35.9797 30.3608 35.9076 30.3449 35.8355 30.3281V41.1355H27.744C27.744 41.086 27.744 41.0357 27.744 40.9871C27.7431 40.0237 27.7991 39.0612 27.9117 38.1044C29.6149 36.6241 29.7985 37.1865 29.7985 37.1865C29.7999 37.3571 29.8446 37.5245 29.9285 37.673C30.0123 37.8216 30.1326 37.9463 30.2779 38.0356C30.4233 38.1249 30.5889 38.1757 30.7593 38.1833C30.9297 38.191 31.0993 38.1552 31.252 38.0793C32.3867 37.5893 33.3693 36.8044 34.0978 35.806C33.2307 35.3363 32.2984 34.9987 31.3316 34.8043C29.0408 34.6961 29.6158 36.2796 29.6158 36.2796C30.5383 35.8438 31.5722 35.7016 32.5781 35.8722C30.9149 35.9878 29.3193 36.5764 27.9795 37.5688C28.8178 31.8403 31.6343 29.8134 32.3895 29.3448" fill="#070203"/>
<path d="M33.5479 28.9736C33.5665 28.9626 33.5858 28.9528 33.6057 28.9442L33.5479 28.9736Z" fill="#070203"/>
<path d="M39.8061 26.2827C39.7275 26.0783 39.6295 25.8818 39.5136 25.696C39.4386 25.4833 39.3498 25.2759 39.2478 25.0748C39.1103 24.9215 38.9389 24.8023 38.7473 24.7268C38.5557 24.6512 38.3491 24.6215 38.1439 24.6398C37.9357 24.5979 37.7226 24.5858 37.511 24.6037C37.314 24.6733 37.3073 24.908 37.2981 25.1343C37.3314 25.6222 37.2775 26.1122 37.1388 26.5811C36.9475 26.9844 36.6546 27.331 36.2889 27.587C35.6966 28.1685 34.9654 28.5886 34.1648 28.8075C33.9717 28.8251 33.7825 28.8726 33.604 28.9483C34.2362 28.9388 34.8683 28.9761 35.4951 29.0598C36.1289 29.2258 36.7779 29.3269 37.4322 29.3616C37.9361 29.3052 38.4154 29.1138 38.8194 28.8075C39.2234 28.5012 39.5371 28.0913 39.7273 27.6214C39.9063 27.1989 39.9345 26.7277 39.8069 26.2869" fill="#070203"/>
<path d="M34.7962 28.0212C35.406 27.7909 35.934 27.385 36.3132 26.8547C36.6925 26.3245 36.906 25.6937 36.927 25.0421C36.9086 24.5317 36.8641 24.0225 36.7937 23.5165C36.7694 23.0656 36.9471 22.4847 36.6881 22.1016C36.1239 21.2634 34.6176 21.8686 33.9931 22.2776C32.9219 22.9809 32.7308 24.1435 32.828 25.4344C32.8878 25.9674 32.8518 26.5068 32.7215 27.0271C32.5227 27.5041 32.4736 28.0303 32.5807 28.5359C32.7945 29.2065 33.1214 28.9651 33.5464 28.675C33.9464 28.4274 34.3641 28.2097 34.7962 28.0237" fill="#070203"/>
</g>
<path d="M38.0401 31.2753L37.5472 31.3457L37.5531 39.7566H20.5956V17.245H37.5531L37.5413 20.6214C38.0046 20.7791 38.4466 20.9933 38.8574 21.2593L38.8674 15.9272H19.2795V41.0743H38.8674V30.8663C38.792 31.0088 38.4366 31.153 38.4366 31.153" fill="#070203"/>
<rect x="9" y="8" width="38" height="37" fill="#EBF4FF"/>
<mask id="mask1_2103_830" style="mask-type:alpha" maskUnits="userSpaceOnUse" x="17" y="15" width="24" height="24">
<rect x="17" y="15" width="24" height="24" fill="#D9D9D9"/>
</mask>
<g mask="url(#mask1_2103_830)">
<path d="M28.1805 34.8827H29.7616V33.4799C30.6597 33.3581 31.4729 33.0207 32.201 32.4676C32.9291 31.9147 33.2932 31.0764 33.2932 29.9526C33.2932 29.1421 33.0542 28.4251 32.5762 27.8016C32.0981 27.1782 31.1644 26.6157 29.7749 26.1139C28.5576 25.6982 27.7493 25.3382 27.35 25.0339C26.9507 24.7296 26.7511 24.3042 26.7511 23.7579C26.7511 23.2116 26.9555 22.7677 27.3645 22.4263C27.7734 22.0849 28.3379 21.9142 29.0579 21.9142C29.6606 21.9142 30.1467 22.0564 30.5163 22.3406C30.886 22.6249 31.1704 22.9815 31.3693 23.4105L32.7988 22.8359C32.5568 22.2199 32.1623 21.6926 31.6154 21.2539C31.0683 20.8153 30.4697 20.5707 29.8195 20.5201V19.1173H28.2384V20.5201C27.2513 20.7102 26.4932 21.1107 25.964 21.7214C25.4346 22.3324 25.17 23.0112 25.17 23.7579C25.17 24.6279 25.4335 25.3278 25.9605 25.8577C26.4876 26.3877 27.3463 26.8664 28.5368 27.2938C29.7675 27.7452 30.6081 28.1502 31.0587 28.5087C31.5092 28.8671 31.7344 29.3484 31.7344 29.9526C31.7344 30.6786 31.4724 31.206 30.9484 31.5346C30.4243 31.8634 29.8327 32.0279 29.1737 32.0279C28.522 32.0279 27.939 31.832 27.4247 31.4402C26.9102 31.0483 26.5149 30.4752 26.2387 29.7211L24.7737 30.3179C25.0736 31.1773 25.5044 31.8601 26.0662 32.3663C26.6281 32.8725 27.3329 33.2244 28.1805 33.422V34.8827ZM29 38C27.4799 38 26.0507 37.7109 24.7126 37.1327C23.3743 36.5546 22.21 35.7704 21.2198 34.7802C20.2296 33.79 19.4454 32.6257 18.8673 31.2874C18.2891 29.9493 18 28.5201 18 27C18 25.4799 18.2891 24.0507 18.8673 22.7126C19.4454 21.3743 20.2296 20.21 21.2198 19.2198C22.21 18.2296 23.3743 17.4454 24.7126 16.8673C26.0507 16.2891 27.4799 16 29 16C30.5201 16 31.9493 16.2891 33.2874 16.8673C34.6257 17.4454 35.79 18.2296 36.7802 19.2198C37.7704 20.21 38.5546 21.3743 39.1327 22.7126C39.7109 24.0507 40 25.4799 40 27C40 28.5201 39.7109 29.9493 39.1327 31.2874C38.5546 32.6257 37.7704 33.79 36.7802 34.7802C35.79 35.7704 34.6257 36.5546 33.2874 37.1327C31.9493 37.7109 30.5201 38 29 38ZM29 36.2632C31.586 36.2632 33.7763 35.3658 35.5711 33.5711C37.3658 31.7763 38.2632 29.586 38.2632 27C38.2632 24.414 37.3658 22.2237 35.5711 20.4289C33.7763 18.6342 31.586 17.7368 29 17.7368C26.414 17.7368 24.2237 18.6342 22.4289 20.4289C20.6342 22.2237 19.7368 24.414 19.7368 27C19.7368 29.586 20.6342 31.7763 22.4289 33.5711C24.2237 35.3658 26.414 36.2632 29 36.2632Z" fill="#1C1B1F"/>
</g>
</g>
<defs>
<clipPath id="clip0_2103_830">
<rect width="57" height="57" fill="white" transform="translate(0.000244141)"/>
</clipPath>
</defs>
</svg>
