<svg width="56" height="56" viewBox="0 0 56 56" fill="none" xmlns="http://www.w3.org/2000/svg">
<g clip-path="url(#clip0_2103_750)">
<path d="M39.5297 0H16.4708C7.37438 0 0.000244141 7.37413 0.000244141 16.4706V39.5294C0.000244141 48.6259 7.37438 56 16.4708 56H39.5297C48.6261 56 56.0002 48.6259 56.0002 39.5294V16.4706C56.0002 7.37413 48.6261 0 39.5297 0Z" fill="#EBF4FF"/>
<path d="M25.8635 32.846C25.4364 32.6636 25.0487 32.4002 24.7215 32.0707C24.398 31.7418 24.1431 31.3522 23.9719 30.9238C23.79 30.4796 23.6976 30.0029 23.7001 29.5229V29.4988C23.6974 29.0153 23.7898 28.5344 23.9719 28.0865C24.1442 27.6551 24.3988 27.2627 24.7215 26.9284C25.0459 26.5939 25.4341 26.3279 25.8635 26.1467C26.8588 25.7537 27.9678 25.7631 28.9565 26.1725C29.3895 26.3803 29.7765 26.6723 30.0953 27.0314L28.8922 28.3375C28.6894 28.1191 28.4572 27.9287 28.2022 27.7745C27.9312 27.6255 27.6249 27.5528 27.3159 27.5638C27.0808 27.5603 26.848 27.614 26.6371 27.7182C26.4346 27.8175 26.2552 27.9577 26.1096 28.13C25.9571 28.3095 25.838 28.5134 25.7573 28.7347C25.6763 28.9734 25.6352 29.2242 25.6367 29.4762V29.502C25.6357 29.7594 25.6767 30.0151 25.7573 30.2596C25.8363 30.4832 25.9573 30.6898 26.1144 30.8676C26.2691 31.0423 26.4586 31.1825 26.6709 31.2793C26.9229 31.3866 27.195 31.4367 27.4687 31.4273C27.7425 31.4179 28.0112 31.349 28.2553 31.2246C28.5205 31.0766 28.7657 30.8954 28.9855 30.6858L30.1388 31.8584C29.8069 32.226 29.4172 32.5373 28.9855 32.78C28.4644 33.0377 27.8872 33.1624 27.3063 33.1403C26.8099 33.143 26.3192 33.0426 25.8635 32.846ZM39.3375 32.854C38.8067 32.6731 38.3109 32.4024 37.8722 32.053L38.7102 30.7469C39.057 31.0059 39.4374 31.2163 39.841 31.3726C40.1762 31.5046 40.5327 31.5754 40.8929 31.5817C41.1115 31.5973 41.3295 31.5481 41.5202 31.4402C41.5826 31.3981 41.6331 31.341 41.6682 31.2745C41.7032 31.208 41.7218 31.1342 41.7212 31.059V31.0348C41.7213 30.9835 41.7106 30.9325 41.6907 30.8852C41.6707 30.838 41.6423 30.7955 41.6054 30.7598C41.5123 30.6743 41.4052 30.6057 41.2886 30.5571C41.1388 30.494 40.9843 30.4397 40.8286 30.3931C40.6548 30.342 40.476 30.2852 40.2833 30.2226C40.0469 30.1534 39.8025 30.0679 39.5547 29.9749C39.316 29.8746 39.0927 29.7423 38.8904 29.5808C38.6898 29.4166 38.5246 29.2138 38.4046 28.9841C38.273 28.7174 38.2102 28.4223 38.2212 28.1251V28.0994C38.2127 27.7728 38.28 27.4484 38.4175 27.152C38.5487 26.8839 38.7345 26.6463 38.9627 26.454C39.1971 26.2588 39.4684 26.1119 39.7605 26.0245C40.0806 25.9255 40.4132 25.8763 40.7481 25.8781C41.2022 25.8814 41.6531 25.9545 42.0848 26.0953C42.5263 26.2327 42.9458 26.4334 43.3313 26.6888L42.5834 28.0608C42.262 27.8708 41.9241 27.7108 41.5733 27.5831C41.2971 27.475 41.0044 27.4158 40.7079 27.4078C40.5171 27.3938 40.3267 27.4423 40.1659 27.5461C40.11 27.584 40.0654 27.6343 40.034 27.6941C40.0025 27.7538 39.9854 27.8212 39.9857 27.8887V27.9144C39.9859 27.9626 39.9969 28.0103 40.0163 28.0544C40.0357 28.0984 40.0629 28.1391 40.0983 28.1718C40.1916 28.2559 40.2967 28.3258 40.4104 28.3793C40.5565 28.4509 40.7062 28.5134 40.8591 28.5691C41.0238 28.6267 41.2021 28.6898 41.3931 28.7524C41.6341 28.8315 41.8794 28.9242 42.1298 29.0307C42.3692 29.1349 42.5953 29.267 42.8021 29.4264C43.0006 29.5849 43.1661 29.7817 43.2895 30.0038C43.427 30.2543 43.4954 30.5369 43.4873 30.8225V30.8515C43.4959 31.1978 43.4277 31.5414 43.2879 31.8584C43.1591 32.1336 42.9656 32.373 42.7233 32.5564C42.4708 32.7462 42.1839 32.886 41.8789 32.9682C41.5386 33.0606 41.1876 33.1061 40.835 33.1033C40.3259 33.1016 39.82 33.0181 39.3375 32.8556V32.854ZM35.548 32.9746L33.7369 30.1212L33.0533 30.8531V32.9746H31.091V23.4574H33.0533V28.5305L35.3534 25.9875H37.7017L35.0671 28.7396L37.7934 32.9762L35.548 32.9746ZM12.3589 32.9746V23.8483H16.0535C16.5477 23.8402 17.0408 23.9155 17.5092 24.0734C17.9111 24.2109 18.2785 24.4313 18.59 24.72C18.889 24.9994 19.1238 25.3401 19.2785 25.7189C19.4397 26.1269 19.5196 26.5638 19.5133 27.0024V27.0282C19.5232 27.5095 19.4283 27.9866 19.235 28.4275C19.052 28.8163 18.7837 29.1587 18.4501 29.4296C18.1059 29.7076 17.7101 29.9149 17.2856 30.0392C16.8229 30.1744 16.3442 30.2417 15.8621 30.2386H14.3502V32.9762L12.3589 32.9746ZM14.3502 28.4452H15.9232C16.3484 28.4725 16.767 28.33 17.0877 28.0495C17.2208 27.9236 17.3273 27.7713 17.3982 27.6024C17.4691 27.4335 17.5028 27.2515 17.4995 27.0684V27.0394C17.5113 26.8458 17.4783 26.6521 17.403 26.4733C17.3277 26.2944 17.2136 26.1353 17.0668 26.0084C16.7262 25.7556 16.3065 25.6305 15.883 25.6545H14.3453L14.3502 28.4452Z" fill="#070303"/>
<path d="M20.5442 32.9802V25.9882H22.5081V32.9802H20.5442ZM21.083 25.6553L21.4401 24.6226L21.8181 24.843L21.1184 25.6762C21.1019 25.6968 21.088 25.7083 21.0798 25.7083C21.0716 25.7083 21.0707 25.689 21.0814 25.6553H21.083ZM21.8696 24.7127L21.4867 24.4956L20.7083 24.0468C20.7915 23.9075 20.9095 23.7918 21.0509 23.7122C21.1923 23.6327 21.3518 23.5905 21.5141 23.5916L22.1494 22.4593L21.9452 22.3435C21.9236 22.3297 21.9083 22.3086 21.9017 22.2839C21.8952 22.2592 21.8979 22.2326 21.9098 22.21L21.9709 22.1006C21.9771 22.0897 21.9851 22.0808 21.995 22.0732C22.005 22.0656 22.0167 22.0603 22.0288 22.0571C22.0409 22.054 22.0534 22.0521 22.0658 22.0539C22.0782 22.0557 22.0905 22.0603 22.1012 22.0668L22.8668 22.5075L23.634 22.9482C23.6546 22.962 23.6699 22.9837 23.6759 23.0077C23.6818 23.0318 23.678 23.0567 23.6662 23.0785L23.6067 23.1879C23.5933 23.2094 23.5732 23.2245 23.5488 23.2313C23.5244 23.2382 23.4974 23.2363 23.4748 23.2249L23.2641 23.1043L22.6271 24.2366C22.7095 24.3764 22.7557 24.536 22.759 24.6982C22.7624 24.8605 22.723 25.02 22.6464 25.1631L21.8696 24.7127Z" fill="#070203"/>
</g>
<defs>
<clipPath id="clip0_2103_750">
<rect width="56" height="56" fill="white" transform="translate(0.000244141)"/>
</clipPath>
</defs>
</svg>
