<svg width="56" height="56" viewBox="0 0 56 56" fill="none" xmlns="http://www.w3.org/2000/svg">
<g clip-path="url(#clip0_2103_771)">
<path d="M39.5294 -6.10352e-05H16.4706C7.37413 -6.10352e-05 0 7.37407 0 16.4705V39.5294C0 48.6258 7.37413 55.9999 16.4706 55.9999H39.5294C48.6259 55.9999 56 48.6258 56 39.5294V16.4705C56 7.37407 48.6259 -6.10352e-05 39.5294 -6.10352e-05Z" fill="#EBF4FF"/>
<path d="M42.7107 15.6486C42.7107 15.6552 42.7107 15.6643 42.7181 15.6676C42.7569 15.7002 42.7867 15.7422 42.8046 15.7897C42.8224 15.8371 42.8278 15.8884 42.8202 15.9385C42.8202 19.3594 42.8202 22.7807 42.8202 26.2021C42.8202 26.2796 42.8202 26.3529 42.7461 26.3981C42.7217 26.4159 42.6935 26.4275 42.6637 26.4319C42.5328 26.4319 42.4018 26.4319 42.2709 26.4319C42.2285 26.428 42.1888 26.4095 42.1587 26.3794C42.1286 26.3493 42.1101 26.3096 42.1062 26.2672V15.9846C42.0961 15.9232 42.1017 15.8602 42.1224 15.8014C42.1432 15.7427 42.1784 15.6902 42.2248 15.6486L42.7107 15.6486Z" fill="black"/>
<path d="M22.1101 15.6478C22.1567 15.6898 22.1922 15.7427 22.2133 15.8018C22.2345 15.8609 22.2406 15.9243 22.2312 15.9863C22.2279 17.8299 22.2279 19.6735 22.2312 21.5171C22.236 21.5469 22.2337 21.5773 22.2244 21.606C22.2151 21.6346 22.1991 21.6606 22.1776 21.6818C22.1598 21.7008 22.1382 21.7158 22.1143 21.7259C22.0903 21.736 22.0645 21.7409 22.0384 21.7403C21.9281 21.7362 21.8186 21.7403 21.709 21.7403C21.6827 21.7433 21.656 21.7404 21.6309 21.7316C21.6059 21.7229 21.5831 21.7086 21.5643 21.6898C21.5456 21.6711 21.5313 21.6483 21.5225 21.6232C21.5138 21.5982 21.5108 21.5715 21.5139 21.5451V20.2168C21.5139 20.1756 21.5139 20.1344 21.5064 20.0834H19.5794C19.548 20.087 19.5161 20.0822 19.4872 20.0695C19.4582 20.0567 19.4332 20.0365 19.4147 20.0109C19.3941 19.9838 19.3813 19.9516 19.3776 19.9178C19.3735 19.7984 19.3776 19.6774 19.3776 19.5571C19.3776 19.5344 19.3822 19.5119 19.391 19.4909C19.3998 19.47 19.4127 19.451 19.429 19.4351C19.4453 19.4192 19.4646 19.4067 19.4857 19.3984C19.5069 19.3901 19.5295 19.3861 19.5522 19.3867H21.5023C21.5091 19.3574 21.5138 19.3277 21.5163 19.2977V17.663C21.5146 17.639 21.5116 17.6151 21.5073 17.5914C21.4603 17.5914 21.4159 17.5839 21.3714 17.5839H19.5868C19.5567 17.5883 19.5261 17.5854 19.4974 17.5753C19.4687 17.5653 19.4429 17.5485 19.4221 17.5263C19.4061 17.5104 19.3935 17.4914 19.3851 17.4704C19.3768 17.4494 19.3728 17.427 19.3735 17.4044C19.3735 17.2982 19.3735 17.1919 19.3735 17.0857C19.3701 17.0586 19.3728 17.0312 19.3816 17.0053C19.3904 16.9795 19.4049 16.956 19.4241 16.9366C19.4433 16.9172 19.4667 16.9025 19.4925 16.8935C19.5182 16.8845 19.5457 16.8815 19.5728 16.8848H21.5048C21.5048 16.8362 21.5122 16.7958 21.5122 16.7538C21.5122 16.4672 21.5122 16.1774 21.5122 15.8941C21.5072 15.8557 21.5121 15.8167 21.5266 15.7808C21.541 15.7449 21.5644 15.7133 21.5946 15.689C21.6064 15.6768 21.6164 15.6629 21.6242 15.6478H22.1101Z" fill="black"/>
<path d="M32.0484 15.6478C32.0953 15.6877 32.1312 15.7389 32.1528 15.7965C32.1745 15.8542 32.181 15.9164 32.1719 15.9772C32.1654 16.6567 32.1719 17.3361 32.1719 18.0147V18.1555C32.2189 18.1555 32.2609 18.1604 32.3004 18.1604H33.5621C33.7087 18.1604 33.7704 18.2238 33.7712 18.3729V18.6809C33.7726 18.7046 33.7688 18.7283 33.7604 18.7505C33.7519 18.7727 33.7388 18.7928 33.722 18.8096C33.7053 18.8264 33.6851 18.8394 33.663 18.8479C33.6408 18.8564 33.6171 18.8601 33.5934 18.8588H32.1687V21.4694C32.171 21.4989 32.1665 21.5287 32.1555 21.5562C32.1445 21.5838 32.1273 21.6084 32.1052 21.6283C32.0895 21.6445 32.0705 21.6571 32.0495 21.6654C32.0285 21.6736 32.0059 21.6773 31.9834 21.6761C31.8664 21.6761 31.7503 21.6761 31.6334 21.6761C31.6098 21.6771 31.5863 21.6733 31.5642 21.6649C31.5421 21.6565 31.522 21.6437 31.5051 21.6273C31.4881 21.6109 31.4747 21.5912 31.4656 21.5694C31.4565 21.5476 31.4519 21.5242 31.4522 21.5007C31.4522 21.4685 31.4522 21.4372 31.4522 21.4051V16.0135C31.4398 15.9483 31.4431 15.8812 31.4619 15.8176C31.4806 15.754 31.5143 15.6958 31.5601 15.6478H32.0484Z" fill="black"/>
<path d="M13.1912 28.1853C13.2201 28.1853 13.2514 28.1803 13.2802 28.1803C14.5155 28.1803 15.7508 28.1803 16.9861 28.1803C17.4825 28.1761 17.9755 28.2621 18.4412 28.434C18.637 28.5073 18.8236 28.6032 18.9971 28.7197C19.2601 28.8926 19.4839 29.1187 19.6541 29.3833C19.8243 29.648 19.9372 29.9455 19.9854 30.2564C20.0631 30.636 20.0479 31.0288 19.9409 31.4011C19.8297 31.7767 19.6147 32.1132 19.3208 32.3721C19.1527 32.5195 18.9566 32.6315 18.7443 32.7015C18.7212 32.7089 18.6998 32.7188 18.676 32.7279C18.676 32.7279 18.676 32.7328 18.662 32.7484L18.7781 32.7822C19.2338 32.8997 19.6421 33.1555 19.9467 33.5143C20.291 33.9211 20.4741 34.44 20.4614 34.9728C20.4666 35.3599 20.3874 35.7436 20.2291 36.0969C19.9838 36.6214 19.5566 37.0392 19.0268 37.2729C18.6375 37.453 18.2191 37.562 17.7915 37.5949C17.5592 37.6147 17.3254 37.6213 17.0923 37.6221C15.8394 37.6221 14.5869 37.6221 13.3345 37.6221H13.1987C13.1723 37.5455 13.169 28.3071 13.1912 28.1853ZM14.3598 33.3735V35.7659C14.3598 36.031 14.3532 36.2937 14.3656 36.5647H14.5064C15.3802 36.5647 16.254 36.5647 17.1285 36.5647C17.337 36.5632 17.5451 36.5495 17.752 36.5235C18.0269 36.492 18.2929 36.406 18.5343 36.2707C18.7019 36.1814 18.849 36.0582 18.9663 35.9089C19.0835 35.7596 19.1684 35.5875 19.2154 35.4035C19.2627 35.2217 19.2796 35.0333 19.2656 34.846C19.2588 34.5947 19.1836 34.35 19.0483 34.1382C18.9129 33.9263 18.7224 33.7554 18.4972 33.6436C18.3687 33.5769 18.2345 33.5218 18.0962 33.4789C17.7891 33.3922 17.4705 33.353 17.1516 33.3628H14.4875L14.3598 33.3735ZM14.3788 32.3466H16.8041C16.9738 32.347 17.1434 32.3384 17.3122 32.321C17.6173 32.2951 17.9129 32.202 18.1777 32.0484C18.3301 31.96 18.4628 31.8413 18.5676 31.6997C18.6724 31.5581 18.7471 31.3965 18.7871 31.2249C18.842 31.001 18.8532 30.7687 18.8201 30.5406C18.7838 30.1987 18.6153 29.8845 18.3507 29.6651C18.2101 29.5516 18.0514 29.4625 17.8812 29.4016C17.5639 29.2903 17.2293 29.2362 16.893 29.2419C16.0868 29.2419 15.2797 29.2419 14.4735 29.2419C14.4407 29.2429 14.408 29.2457 14.3755 29.2501C14.3516 29.3876 14.3557 32.2576 14.3788 32.3466Z" fill="black"/>
<path d="M28.9957 30.8897H30.1487C30.1487 30.9342 30.1536 30.9721 30.1536 31.0149V37.4804C30.1624 37.9777 30.0599 38.4706 29.8538 38.9233C29.6627 39.3545 29.3686 39.7321 28.9974 40.0232C28.6263 40.3142 28.1893 40.5097 27.725 40.5926C27.0735 40.734 26.3955 40.693 25.7658 40.474C25.3175 40.3271 24.9152 40.066 24.5984 39.7164C24.2816 39.3668 24.0612 38.9408 23.959 38.4802C23.9458 38.4324 23.9376 38.3839 23.9269 38.3353C23.9269 38.3254 23.9269 38.3147 23.9269 38.2949C24.0229 38.2783 24.1205 38.2739 24.2176 38.2817C24.3139 38.2817 24.4161 38.2817 24.5149 38.2817H25.0914C25.1029 38.313 25.1111 38.332 25.1169 38.3517C25.1784 38.6358 25.3187 38.8968 25.5218 39.1048C25.7248 39.3128 25.9824 39.4594 26.2649 39.5277C26.7458 39.6765 27.2618 39.6664 27.7365 39.4989C28.0015 39.4052 28.2408 39.2509 28.4356 39.0483C28.6303 38.8457 28.775 38.6004 28.8582 38.332C28.9422 38.0937 28.9873 37.8434 28.9916 37.5908C28.9974 37.2721 28.9916 36.9542 28.9916 36.6355C28.9916 36.6157 28.9916 36.596 28.9834 36.5597C28.9676 36.5736 28.9528 36.5885 28.9389 36.6042C28.5982 37.1094 28.0768 37.4649 27.4821 37.5974C26.7339 37.7975 25.9381 37.7131 25.2486 37.3605C24.559 37.0079 24.0247 36.4122 23.749 35.6884C23.5205 35.1178 23.4305 34.5012 23.4863 33.889C23.5262 33.2892 23.7128 32.7083 24.0298 32.1975C24.4401 31.535 25.0833 31.0499 25.833 30.8375C26.5827 30.6251 27.3848 30.7007 28.0816 31.0495C28.4297 31.2242 28.7257 31.4875 28.9397 31.8129C28.9496 31.8269 28.9611 31.8401 28.9817 31.8656C28.9976 31.7593 29.002 31.6517 28.9949 31.5444C28.9949 31.4341 28.9949 31.3246 28.9949 31.215L28.9957 30.8897ZM29.0188 34.2291C29.023 33.9063 28.9706 33.5852 28.8639 33.2804C28.7001 32.7643 28.3481 32.3287 27.8779 32.06C27.4077 31.7914 26.8537 31.7093 26.3258 31.8302C26.0036 31.8911 25.7015 32.0312 25.4469 32.238C25.1923 32.4447 24.9931 32.7115 24.8674 33.0144C24.7093 33.3561 24.6201 33.7256 24.6048 34.1017C24.5895 34.4779 24.6485 34.8533 24.7784 35.2067C24.9145 35.6498 25.196 36.034 25.5776 36.2972C25.9591 36.5604 26.4184 36.6872 26.8809 36.6569C27.2569 36.6514 27.6243 36.5441 27.9442 36.3465C28.2641 36.1488 28.5244 35.8682 28.6976 35.5344C28.9146 35.1346 29.0249 34.6857 29.0179 34.2308L29.0188 34.2291Z" fill="black"/>
<path d="M17.9061 26.3331C17.3112 26.3363 16.7174 26.2842 16.1322 26.1775C15.7031 26.1039 15.2855 25.974 14.8903 25.7913C14.6291 25.6705 14.3913 25.5046 14.1878 25.3013C13.8903 25.0011 13.7234 24.5956 13.7234 24.173C13.7234 23.7504 13.8903 23.3449 14.1878 23.0448C14.4176 22.8173 14.6887 22.6359 14.9867 22.5103C15.3941 22.3371 15.8215 22.2154 16.259 22.148C17.0424 22.0247 17.8365 21.9841 18.6283 22.0269C19.244 22.045 19.8554 22.1354 20.45 22.2962C20.7886 22.3855 21.1136 22.5204 21.416 22.6973C21.593 22.8036 21.7544 22.9341 21.8952 23.0851C22.17 23.3793 22.3235 23.7665 22.3249 24.1691C22.3262 24.5717 22.1754 24.9599 21.9027 25.256C21.7104 25.4597 21.4831 25.627 21.2315 25.7501C20.8476 25.9405 20.439 26.0763 20.0176 26.1536C19.3221 26.2879 18.6143 26.3481 17.9061 26.3331ZM17.9472 22.7154C17.3428 22.7092 16.7394 22.7669 16.147 22.8875C15.8035 22.9535 15.4709 23.0671 15.1588 23.2251C14.9908 23.3082 14.8384 23.4196 14.7083 23.5546C14.6265 23.6362 14.5617 23.7334 14.5179 23.8404C14.474 23.9473 14.4519 24.062 14.4528 24.1776C14.4537 24.2932 14.4777 24.4075 14.5232 24.5137C14.5688 24.62 14.6351 24.7161 14.7182 24.7964C14.8236 24.9009 14.9411 24.9925 15.0682 25.069C15.3214 25.219 15.5956 25.33 15.8818 25.3984C16.4239 25.5361 16.9797 25.6126 17.5388 25.6266C18.2496 25.662 18.9621 25.6214 19.6643 25.5055C20.0562 25.4444 20.4377 25.3297 20.7983 25.1646C20.981 25.0806 21.1481 24.9661 21.2924 24.8261C21.383 24.7433 21.4553 24.6425 21.5048 24.5302C21.5543 24.4179 21.5799 24.2966 21.5799 24.1739C21.5799 24.0511 21.5543 23.9298 21.5048 23.8175C21.4553 23.7052 21.383 23.6044 21.2924 23.5216C21.1479 23.3819 20.9808 23.2675 20.7983 23.1831C20.4737 23.0331 20.131 22.926 19.7788 22.8644C19.1755 22.7541 18.5629 22.7037 17.9497 22.7137L17.9472 22.7154Z" fill="black"/>
<path d="M28.0756 21.9618C28.7513 21.9583 29.4257 22.0212 30.0892 22.1496C30.4713 22.225 30.8427 22.347 31.1952 22.5127C31.4153 22.6182 31.62 22.7531 31.8037 22.9138C31.9789 23.0694 32.119 23.2604 32.2147 23.4742C32.3104 23.6881 32.3596 23.9198 32.3589 24.1541C32.3582 24.3883 32.3077 24.6198 32.2107 24.833C32.1137 25.0463 31.9724 25.2365 31.7963 25.391C31.5266 25.6212 31.2174 25.8009 30.8839 25.9213C30.4581 26.0772 30.0161 26.1844 29.5662 26.2409C28.8817 26.3312 28.1903 26.3588 27.5008 26.3232C26.7921 26.3071 26.0896 26.1873 25.4156 25.9675C25.0988 25.8644 24.8002 25.7118 24.5312 25.5153C24.3251 25.3716 24.1543 25.1828 24.0319 24.9634C23.9094 24.744 23.8384 24.4996 23.8242 24.2488C23.81 23.9979 23.853 23.7471 23.9499 23.5152C24.0468 23.2834 24.1952 23.0766 24.3837 22.9105C24.6763 22.6572 25.0169 22.4653 25.3852 22.3464C25.8238 22.1965 26.2775 22.0952 26.7382 22.0442C27.1818 21.9954 27.6277 21.9695 28.074 21.9667L28.0756 21.9618ZM28.0913 22.6593C27.8368 22.67 27.5823 22.6783 27.3279 22.6915C26.9183 22.713 26.5114 22.7715 26.1123 22.866C25.7942 22.9355 25.4873 23.0492 25.2007 23.2037C25.0312 23.2934 24.8801 23.4141 24.7552 23.5595C24.6159 23.7225 24.5389 23.9296 24.538 24.1441C24.5371 24.3585 24.6123 24.5663 24.7502 24.7305C24.8761 24.8794 25.0293 25.003 25.2015 25.0945C25.4217 25.2156 25.6556 25.3099 25.8982 25.3753C26.4939 25.5345 27.1074 25.6175 27.724 25.6224C28.0666 25.6306 28.41 25.6224 28.7526 25.6076C29.1876 25.5914 29.62 25.5332 30.0439 25.4338C30.4119 25.3578 30.7645 25.22 31.0865 25.0262C31.2343 24.936 31.3636 24.8186 31.4677 24.6803C31.5818 24.5272 31.6435 24.3413 31.6435 24.1503C31.6435 23.9594 31.5818 23.7735 31.4677 23.6204C31.393 23.5176 31.3031 23.4267 31.2009 23.3511C31.0632 23.2523 30.9165 23.1666 30.7628 23.095C30.403 22.9368 30.0231 22.8292 29.6337 22.7755C29.1234 22.6963 28.6077 22.6572 28.0913 22.6585V22.6593Z" fill="black"/>
<path d="M40.0918 19.3348C40.101 19.94 39.9595 20.538 39.68 21.0749C39.4655 21.4946 39.1536 21.8568 38.7706 22.1315C38.3875 22.4061 37.9443 22.5851 37.4779 22.6536C36.8854 22.7603 36.2748 22.6975 35.7164 22.4724C35.3581 22.3344 35.0308 22.1264 34.7537 21.8606C34.4766 21.5948 34.2551 21.2765 34.1023 20.9242C33.8673 20.4278 33.7467 19.885 33.7496 19.3358C33.7524 18.7866 33.8786 18.245 34.1188 17.7511C34.3211 17.2968 34.6368 16.902 35.0355 16.6046C35.4342 16.3073 35.9026 16.1173 36.3958 16.053C37.1101 15.9236 37.8471 16.0471 38.4802 16.4022C38.8499 16.6104 39.1725 16.8929 39.4276 17.2319C39.6827 17.571 39.8648 17.9592 39.9625 18.3721C40.0447 18.6865 40.0881 19.0098 40.0918 19.3348ZM39.3638 19.2961C39.358 19.222 39.3523 19.0811 39.3358 18.9403C39.3223 18.8294 39.3019 18.7193 39.2749 18.6109C39.1607 18.074 38.8709 17.5904 38.4513 17.2364C38.1898 17.0226 37.8852 16.8677 37.5583 16.7825C37.2314 16.6972 36.8899 16.6835 36.5572 16.7423C36.1763 16.7851 35.8131 16.9267 35.5037 17.153C35.1943 17.3794 34.9494 17.6827 34.7932 18.0328C34.5904 18.4439 34.4841 18.8959 34.4826 19.3543C34.481 19.8127 34.5841 20.2655 34.7842 20.678C35.0189 21.2052 35.4513 21.6192 35.9882 21.8309C36.3795 21.989 36.8048 22.044 37.2235 21.9907C37.5848 21.9578 37.9327 21.8379 38.2375 21.6411C38.5423 21.4443 38.7948 21.1765 38.9735 20.8608C39.2428 20.3863 39.377 19.8472 39.3613 19.3018L39.3638 19.2961Z" fill="black"/>
<path d="M16.0776 16.0341H18.6931C18.7262 16.0301 18.7597 16.0351 18.7901 16.0486C18.8206 16.0621 18.8468 16.0835 18.8661 16.1106C18.8818 16.1362 18.8938 16.164 18.9015 16.193C18.9039 16.2105 18.9039 16.2282 18.9015 16.2457V20.7586C18.9055 20.7848 18.9036 20.8115 18.8961 20.8368C18.8885 20.8622 18.8755 20.8855 18.8578 20.9052C18.837 20.9279 18.8114 20.9458 18.783 20.9577C18.7546 20.9697 18.7239 20.9754 18.6931 20.9744C17.9569 20.9744 17.2207 20.9744 16.4853 20.9744H13.4547C13.4232 20.978 13.3913 20.9731 13.3623 20.9602C13.3334 20.9473 13.3084 20.9269 13.29 20.9011C13.2752 20.8717 13.2644 20.8404 13.2578 20.8081C13.2556 20.7941 13.2556 20.78 13.2578 20.7661V16.2424C13.2529 16.2184 13.2533 16.1936 13.2588 16.1697C13.2644 16.1459 13.275 16.1235 13.29 16.1041C13.3106 16.0809 13.336 16.0624 13.3644 16.0501C13.3929 16.0377 13.4237 16.0317 13.4547 16.0324C14.3293 16.0346 15.2036 16.0352 16.0776 16.0341ZM13.985 16.7415C13.9603 16.8543 13.9644 20.1748 13.985 20.253C14.1316 20.2744 18.0961 20.267 18.1743 20.2439V16.7415H13.985Z" fill="black"/>
<path d="M28.5394 16.7308H23.5867C23.5591 16.7358 23.5307 16.7344 23.5037 16.7267C23.4767 16.719 23.4518 16.7052 23.431 16.6863C23.4107 16.6676 23.3947 16.6448 23.3839 16.6193C23.3731 16.5939 23.3678 16.5665 23.3685 16.5389C23.3726 16.4294 23.3685 16.319 23.3685 16.2095C23.3697 16.1637 23.3886 16.1202 23.4211 16.088C23.4536 16.0558 23.4973 16.0374 23.543 16.0365H29.0434C29.0953 16.0365 29.148 16.0242 29.1933 16.0703C29.2172 16.0905 29.2364 16.1157 29.2493 16.1442C29.2623 16.1727 29.2687 16.2037 29.2682 16.235C29.2641 16.571 29.2682 16.9078 29.2682 17.2438C29.2691 17.8618 29.13 18.4719 28.8614 19.0284C28.5371 19.6718 28.022 20.1993 27.3865 20.5388C26.8826 20.8132 26.3405 21.0105 25.7781 21.1243C25.2799 21.2318 24.7736 21.2971 24.2645 21.3195C24.0314 21.3302 23.7975 21.3359 23.5645 21.3409C23.5391 21.3434 23.5135 21.3403 23.4895 21.3318C23.4655 21.3233 23.4436 21.3097 23.4254 21.2919C23.4072 21.2741 23.3931 21.2525 23.3841 21.2287C23.3751 21.2049 23.3715 21.1793 23.3734 21.1539V20.8245C23.3719 20.7991 23.3757 20.7737 23.3846 20.7498C23.3936 20.726 23.4074 20.7043 23.4253 20.6861C23.4431 20.6679 23.4646 20.6537 23.4883 20.6444C23.512 20.635 23.5374 20.6307 23.5628 20.6318C23.8296 20.6219 24.094 20.6195 24.3583 20.6014C25.1159 20.567 25.8628 20.4093 26.5695 20.1344C26.9921 19.9677 27.3773 19.7185 27.7027 19.4015C28.1175 18.9834 28.3921 18.4466 28.4883 17.8656C28.5458 17.5093 28.5673 17.1482 28.5526 16.7876C28.5507 16.7682 28.5477 16.749 28.5435 16.7299L28.5394 16.7308Z" fill="black"/>
<path d="M21.3804 30.8897H22.5275V37.6245C22.1456 37.6498 21.7626 37.6522 21.3804 37.6319V30.8897Z" fill="black"/>
<path d="M41.2399 25.1052C41.0818 25.167 40.9286 25.2329 40.7721 25.2831C40.3908 25.4035 39.9994 25.4889 39.6027 25.5384C38.7745 25.648 37.9395 25.6984 37.1041 25.6891H33.5671C33.5361 25.6942 33.5044 25.6907 33.4753 25.6789C33.4463 25.6671 33.421 25.6476 33.4023 25.6224C33.3802 25.592 33.3658 25.5567 33.3604 25.5195C33.3554 25.4 33.3604 25.279 33.3604 25.1588C33.3627 25.1158 33.3808 25.0753 33.4112 25.0449C33.4416 25.0145 33.4821 24.9964 33.5251 24.994H33.6074C34.7332 24.994 35.8581 24.9982 36.9839 24.994C37.5184 24.994 38.0545 24.9801 38.5865 24.9496C39.2267 24.9235 39.8621 24.8257 40.4806 24.6581C40.6585 24.6062 40.8347 24.5353 41.0093 24.4695C41.0332 24.4598 41.0589 24.4559 41.0846 24.4581C41.1102 24.4602 41.135 24.4684 41.157 24.4818C41.1789 24.4953 41.1974 24.5137 41.2109 24.5355C41.2245 24.5574 41.2327 24.5822 41.2349 24.6078C41.2407 24.7651 41.2399 24.924 41.2399 25.1052Z" fill="black"/>
<path d="M22.7228 28.5616C22.7287 28.6878 22.7033 28.8136 22.6489 28.9277C22.5946 29.0418 22.513 29.1408 22.4113 29.2159C22.3096 29.2909 22.191 29.3398 22.0659 29.3581C21.9408 29.3764 21.8132 29.3636 21.6942 29.3209C21.5474 29.2706 21.4196 29.1764 21.3281 29.051C21.2367 28.9256 21.1859 28.7752 21.1828 28.62C21.1792 28.5213 21.1897 28.4226 21.2141 28.3269C21.2596 28.1442 21.373 27.9856 21.5311 27.8834C21.6893 27.7813 21.8804 27.7431 22.0657 27.7767C22.2431 27.7998 22.4067 27.885 22.5273 28.0172C22.6479 28.1494 22.7178 28.3201 22.7245 28.499C22.725 28.5199 22.7244 28.5407 22.7228 28.5616Z" fill="black"/>
<path d="M42.8202 33.5588C42.8041 33.5947 42.7967 33.634 42.7988 33.6733C42.7683 34.5333 42.5277 35.3727 42.098 36.1183C41.9686 36.3376 41.8162 36.5424 41.6434 36.7294C41.092 37.3328 40.3523 37.7314 39.5451 37.8601C39.1459 37.929 38.7395 37.9453 38.3361 37.9087C37.9929 37.8824 37.6543 37.8136 37.3281 37.7036C36.8892 37.5544 36.4834 37.3214 36.1332 37.0176C35.6303 36.5711 35.2486 36.0044 35.0239 35.3706C34.8558 34.9124 34.7452 34.4353 34.6945 33.95C34.6484 33.5584 34.6329 33.1638 34.6484 32.7699C34.6639 32.0991 34.7813 31.4346 34.9967 30.7991C35.1444 30.3715 35.3593 29.97 35.6333 29.61C36.0445 29.0703 36.6018 28.6599 37.2392 28.4274C37.627 28.2861 38.0335 28.2028 38.4456 28.1803C38.5741 28.1729 38.7034 28.1606 38.8319 28.1655C39.4903 28.1731 40.1376 28.3362 40.7211 28.6415C41.1408 28.8706 41.51 29.1821 41.8065 29.5573C42.1789 30.0375 42.4493 30.5887 42.6012 31.1771C42.6929 31.5235 42.7576 31.8765 42.7947 32.2329C42.8013 32.2897 42.7947 32.3474 42.7997 32.405C42.7956 32.4482 42.803 32.4916 42.8211 32.531L42.8202 33.5588ZM36.0434 33.0424C36.0434 33.1857 36.0533 33.3282 36.0607 33.4715C36.0717 33.6966 36.0954 33.921 36.1315 34.1435C36.2079 34.6773 36.3887 35.1908 36.6635 35.6547C36.8982 36.0526 37.2409 36.3758 37.6518 36.5869C38.0604 36.7934 38.5195 36.8791 38.9752 36.834C39.5124 36.7905 40.0172 36.5596 40.4015 36.1817C40.659 35.9259 40.866 35.6239 41.0118 35.2915C41.2545 34.7352 41.3924 34.1388 41.4186 33.5324C41.4334 33.3191 41.4318 33.1042 41.4285 32.8893C41.4256 32.5491 41.3944 32.2097 41.3354 31.8747C41.257 31.3887 41.0916 30.9208 40.8471 30.4936C40.6146 30.0832 40.2724 29.7455 39.8588 29.5186C39.3973 29.2771 38.8692 29.194 38.3559 29.2822C37.7597 29.3704 37.2221 29.6892 36.8587 30.17C36.5634 30.5552 36.3516 30.9978 36.2369 31.4695C36.1065 31.9836 36.0415 32.5121 36.0434 33.0424Z" fill="#5055B1"/>
<path d="M33.7193 33.0532C33.7193 34.5443 33.7193 36.0354 33.7193 37.5266C33.7193 37.7102 33.7193 37.7102 33.5373 37.7102H32.4296H32.3333C32.3234 37.7111 32.3134 37.7098 32.304 37.7064C32.2947 37.703 32.2862 37.6975 32.2792 37.6904C32.2722 37.6833 32.2668 37.6748 32.2635 37.6654C32.2602 37.656 32.259 37.646 32.26 37.6361C32.26 37.5933 32.26 37.5537 32.26 37.5068C32.26 34.8902 32.26 32.2735 32.26 29.6569C32.26 29.4428 32.274 29.4535 32.0541 29.4535H30.118C29.9582 29.4535 29.9583 29.4535 29.9583 29.2888C29.9583 29.0343 29.9583 28.7799 29.9583 28.5254C29.9583 28.4043 29.9673 28.3953 30.0859 28.3953H33.5917C33.7127 28.3953 33.7193 28.4035 33.7193 28.5361C33.7193 29.6435 33.7193 30.7511 33.7193 31.859V33.0532Z" fill="#5055B1"/>
</g>
<defs>
<clipPath id="clip0_2103_771">
<rect width="56" height="56" fill="white"/>
</clipPath>
</defs>
</svg>
