<svg width="56" height="56" viewBox="0 0 56 56" fill="none" xmlns="http://www.w3.org/2000/svg">
<g clip-path="url(#clip0_2103_731)">
<path d="M39.5297 0H16.4708C7.37438 0 0.000244141 7.37413 0.000244141 16.4706V39.5294C0.000244141 48.6259 7.37438 56 16.4708 56H39.5297C48.6261 56 56.0002 48.6259 56.0002 39.5294V16.4706C56.0002 7.37413 48.6261 0 39.5297 0Z" fill="#EBF4FF"/>
<path d="M28.0003 17.4811C27.8964 17.4804 27.7962 17.5196 27.7203 17.5907L25.9168 19.2624C25.3842 19.7572 24.6838 20.0318 23.9568 20.0308C23.9156 20.0308 23.8745 20.0308 23.8341 20.0308L21.3915 19.9254C21.2887 19.921 21.188 19.9552 21.1092 20.0214C21.0304 20.0875 20.9792 20.1808 20.9658 20.2828L20.6363 22.7904C20.5394 23.5398 20.1505 24.2205 19.5542 24.6846L17.5778 26.2311C17.4976 26.2938 17.4435 26.3839 17.4258 26.4842C17.4082 26.5844 17.4283 26.6876 17.4822 26.7738L18.8262 28.929C19.2267 29.5661 19.3607 30.3352 19.1993 31.0702L18.6607 33.5597C18.639 33.6596 18.6552 33.764 18.7062 33.8526C18.7572 33.9412 18.8393 34.0076 18.9366 34.039L21.2911 34.7975C21.6509 34.9124 21.9844 35.0974 22.2725 35.3418C22.5605 35.5862 22.7974 35.8851 22.9694 36.2214L24.1116 38.4391C24.1591 38.5313 24.2396 38.6021 24.337 38.6375C24.4343 38.6729 24.5415 38.6703 24.6371 38.6302L26.8878 37.6881C27.2399 37.5409 27.6178 37.465 27.9995 37.465C28.3812 37.465 28.7591 37.5409 29.1113 37.6881L31.3636 38.6236C31.4592 38.6637 31.5664 38.6663 31.6637 38.6309C31.7611 38.5955 31.8416 38.5247 31.8891 38.4326L33.0313 36.2148C33.2033 35.8785 33.4402 35.5796 33.7282 35.3352C34.0163 35.0908 34.3498 34.9059 34.7096 34.7909L37.0641 34.0324C37.1614 34.001 37.2435 33.9346 37.2945 33.846C37.3455 33.7574 37.3617 33.653 37.34 33.5531L36.8014 31.0636C36.64 30.3286 36.774 29.5596 37.1745 28.9224L38.5201 26.7689C38.5741 26.6826 38.5941 26.5794 38.5765 26.4792C38.5589 26.379 38.5047 26.2889 38.4246 26.2262L36.4481 24.6796C35.8518 24.2156 35.4629 23.5348 35.366 22.7855L35.0366 20.2779C35.0236 20.1789 34.9751 20.088 34.9001 20.0221C34.8251 19.9562 34.7288 19.9198 34.6289 19.9196H34.6108L32.1674 20.0234C31.787 20.04 31.407 19.9809 31.0496 19.8494C30.6922 19.7179 30.3645 19.5167 30.0855 19.2575L28.282 17.5857C28.205 17.5161 28.1042 17.4786 28.0003 17.4811ZM28.0003 16.2458C28.4157 16.2457 28.8157 16.4025 29.1203 16.6848L30.9239 18.3566C31.0834 18.5046 31.2708 18.6195 31.475 18.6947C31.6793 18.7699 31.8964 18.8039 32.1139 18.7947L34.5565 18.6942C34.9679 18.6767 35.3709 18.8139 35.6862 19.0789C36.0014 19.3438 36.2059 19.7172 36.2595 20.1255L36.5889 22.6331C36.6452 23.0612 36.8673 23.4501 37.2074 23.7161L39.1839 25.2627C39.5043 25.5133 39.7207 25.8737 39.7912 26.2744C39.8618 26.675 39.7815 27.0876 39.566 27.4327L38.2203 29.5862C37.9929 29.95 37.9164 30.3882 38.0071 30.8075L38.5456 33.297C38.6322 33.6965 38.5671 34.114 38.363 34.4681C38.1589 34.8223 37.8304 35.088 37.4413 35.2134L35.0868 35.9719C34.672 36.1054 34.327 36.398 34.1274 36.7855L32.9852 39.0033C32.7955 39.3715 32.474 39.6547 32.0848 39.7965C31.6956 39.9383 31.2673 39.9282 30.8852 39.7683L28.6345 38.8262C28.4331 38.7419 28.217 38.6986 27.9987 38.6986C27.7804 38.6986 27.5643 38.7419 27.3629 38.8262L25.1122 39.7683C24.7301 39.9282 24.3018 39.9383 23.9126 39.7965C23.5234 39.6547 23.2019 39.3715 23.0122 39.0033L21.8716 36.7822C21.6721 36.3947 21.3271 36.1022 20.9122 35.9686L18.5578 35.2101C18.1687 35.0847 17.8402 34.819 17.6361 34.4649C17.432 34.1107 17.3669 33.6932 17.4534 33.2937L17.992 30.8042C18.0827 30.3849 18.0061 29.9467 17.7787 29.5829L16.4331 27.4294C16.2175 27.0843 16.1373 26.6717 16.2078 26.2711C16.2784 25.8704 16.4947 25.51 16.8152 25.2594L18.7916 23.7128C19.1318 23.4468 19.3539 23.0579 19.4101 22.6298L19.7395 20.1222C19.7939 19.7142 19.999 19.3414 20.3145 19.0771C20.63 18.8128 21.033 18.6762 21.4442 18.6942L23.8876 18.798C24.1051 18.8072 24.3222 18.7732 24.5265 18.698C24.7307 18.6228 24.9181 18.5079 25.0776 18.3598L26.8812 16.6881C27.1851 16.4048 27.5849 16.2468 28.0003 16.2458Z" fill="black"/>
<path d="M30.2197 24.7925C30.4667 24.2679 30.265 24.0052 29.9652 23.9121C29.6473 23.8092 29.257 23.978 29.0124 24.5117L25.7899 31.2004C25.5429 31.725 25.7537 31.9967 26.0625 32.0906C26.3713 32.1845 26.7798 32.0148 27.0244 31.4903L30.2197 24.7925ZM31.2804 32.1219C31.5039 32.1396 31.7287 32.1084 31.9389 32.0304C32.1492 31.9525 32.34 31.8298 32.4981 31.6707C32.6561 31.5116 32.7777 31.32 32.8542 31.1093C32.9308 30.8985 32.9606 30.6736 32.9415 30.4501V29.5228C32.9591 29.2999 32.9282 29.0758 32.8511 28.866C32.7739 28.6561 32.6523 28.4654 32.4945 28.307C32.3367 28.1485 32.1465 28.0261 31.9369 27.9482C31.7273 27.8702 31.5034 27.8385 31.2804 27.8552C31.057 27.8384 30.8326 27.8699 30.6225 27.9477C30.4124 28.0256 30.2215 28.1478 30.063 28.3061C29.9044 28.4644 29.7819 28.6551 29.7038 28.865C29.6257 29.075 29.5938 29.2994 29.6103 29.5228V30.4501C29.5929 30.6738 29.6242 30.8985 29.7021 31.1089C29.7799 31.3193 29.9024 31.5103 30.0611 31.6688C30.2198 31.8272 30.411 31.9495 30.6215 32.027C30.832 32.1045 31.0568 32.1355 31.2804 32.1178V32.1219ZM31.2804 30.8866C31.2264 30.8869 31.1728 30.876 31.1233 30.8545C31.0737 30.833 31.0291 30.8014 30.9924 30.7617C30.9557 30.7221 30.9276 30.6752 30.91 30.6241C30.8924 30.573 30.8856 30.5188 30.89 30.465V29.5138C30.8865 29.4601 30.8939 29.4063 30.9118 29.3556C30.9297 29.3049 30.9578 29.2583 30.9944 29.2189C31.0309 29.1794 31.0751 29.1478 31.1243 29.126C31.1735 29.1042 31.2266 29.0927 31.2804 29.0921C31.3337 29.093 31.3863 29.1047 31.4348 29.1268C31.4834 29.1488 31.5269 29.1805 31.5627 29.2201C31.5985 29.2596 31.6257 29.3061 31.6427 29.3566C31.6598 29.4072 31.6662 29.4607 31.6617 29.5138V30.46C31.6671 30.5133 31.6613 30.5672 31.6446 30.6181C31.6279 30.669 31.6007 30.7158 31.5647 30.7556C31.5288 30.7953 31.4849 30.8271 31.4359 30.8488C31.387 30.8705 31.334 30.8817 31.2804 30.8817V30.8866ZM24.7292 28.1459C24.9524 28.1635 25.1767 28.1324 25.3867 28.0547C25.5966 27.977 25.7872 27.8546 25.9452 27.696C26.1032 27.5374 26.2248 27.3463 26.3017 27.1361C26.3785 26.9258 26.4087 26.7014 26.3903 26.4783V25.551C26.4079 25.328 26.3771 25.104 26.2999 24.8941C26.2228 24.6842 26.1011 24.4935 25.9433 24.3351C25.7855 24.1767 25.5953 24.0543 25.3857 23.9763C25.1762 23.8983 24.9522 23.8666 24.7292 23.8833C24.5058 23.8665 24.2814 23.898 24.0713 23.9759C23.8612 24.0537 23.6703 24.1759 23.5118 24.3342C23.3533 24.4925 23.2307 24.6832 23.1526 24.8932C23.0745 25.1031 23.0426 25.3275 23.0591 25.551V26.4783C23.0417 26.7019 23.0731 26.9266 23.1509 27.137C23.2287 27.3474 23.3512 27.5384 23.5099 27.6969C23.6687 27.8554 23.8598 27.9776 24.0703 28.0551C24.2808 28.1326 24.5056 28.1636 24.7292 28.1459ZM24.7292 26.9106C24.6749 26.9108 24.6212 26.8997 24.5715 26.878C24.5218 26.8562 24.4771 26.8243 24.4405 26.7843C24.4038 26.7443 24.3759 26.6971 24.3585 26.6456C24.3412 26.5942 24.3348 26.5397 24.3397 26.4857V25.5419C24.3361 25.4882 24.3435 25.4344 24.3614 25.3837C24.3794 25.333 24.4075 25.2865 24.444 25.247C24.4806 25.2075 24.5248 25.1759 24.574 25.1541C24.6231 25.1323 24.6763 25.1208 24.73 25.1203C24.7834 25.1211 24.8359 25.1329 24.8845 25.1549C24.9331 25.1769 24.9766 25.2087 25.0123 25.2482C25.0481 25.2877 25.0753 25.3342 25.0924 25.3848C25.1094 25.4353 25.1159 25.4888 25.1113 25.5419V26.4857C25.117 26.5392 25.1113 26.5933 25.0947 26.6444C25.0781 26.6956 25.0508 26.7427 25.0148 26.7826C24.9787 26.8226 24.9347 26.8545 24.8855 26.8762C24.8363 26.898 24.783 26.9091 24.7292 26.909V26.9106Z" fill="#5055B1"/>
</g>
<defs>
<clipPath id="clip0_2103_731">
<rect width="56" height="56" fill="white" transform="translate(0.000244141)"/>
</clipPath>
</defs>
</svg>
