<svg width="56" height="56" viewBox="0 0 56 56" fill="none" xmlns="http://www.w3.org/2000/svg">
<g clip-path="url(#clip0_2103_721)">
<path d="M39.5297 0H16.4708C7.37438 0 0.000244141 7.37413 0.000244141 16.4706V39.5294C0.000244141 48.6259 7.37438 56 16.4708 56H39.5297C48.6261 56 56.0002 48.6259 56.0002 39.5294V16.4706C56.0002 7.37413 48.6261 0 39.5297 0Z" fill="#EBF4FF"/>
<path d="M38.7067 23.4953C38.7052 21.8522 38.052 20.2768 36.8904 19.1147C35.7288 17.9526 34.1537 17.2988 32.5106 17.2966H21.2784C20.6951 17.2972 20.1358 17.5291 19.7231 17.9415C19.3105 18.3538 19.0782 18.9129 19.0771 19.4962V23.9046C19.0845 24.1545 19.1888 24.3917 19.3682 24.5659C19.5475 24.7401 19.7878 24.8375 20.0378 24.8375C20.2878 24.8375 20.528 24.7401 20.7073 24.5659C20.8867 24.3917 20.9911 24.1545 20.9984 23.9046V19.4962C20.9986 19.4597 21.0059 19.4235 21.02 19.3898C21.0341 19.356 21.0546 19.3254 21.0805 19.2997C21.1064 19.2739 21.1371 19.2535 21.171 19.2396C21.2048 19.2257 21.2411 19.2186 21.2776 19.2187H32.5097C33.3931 19.2186 34.2549 19.4922 34.9765 20.0019C35.6981 20.5117 36.2441 21.2324 36.5393 22.0651C36.8346 22.8978 36.8646 23.8015 36.6252 24.6519C36.3858 25.5023 35.8888 26.2577 35.2026 26.8141C35.092 26.9047 35.0029 27.0186 34.9416 27.1478C34.8804 27.277 34.8486 27.4181 34.8486 27.561C34.8489 27.7034 34.8812 27.8438 34.9429 27.972C35.0046 28.1003 35.0942 28.2131 35.2051 28.3022C35.8728 28.8475 36.3611 29.5808 36.6069 30.4069C36.8527 31.2331 36.8445 32.1141 36.5834 32.9356C36.3223 33.7571 35.8203 34.4811 35.1427 35.0139C34.4651 35.5466 33.643 35.8634 32.7831 35.9231H21.2784C21.2044 35.9227 21.1335 35.893 21.0812 35.8406C21.0289 35.7882 20.9995 35.7172 20.9993 35.6432V34.468C21.003 34.3395 20.9809 34.2115 20.9343 34.0917C20.8877 33.9718 20.8176 33.8626 20.728 33.7703C20.6385 33.6781 20.5313 33.6048 20.4129 33.5547C20.2944 33.5046 20.1672 33.4788 20.0386 33.4788C19.91 33.4788 19.7828 33.5046 19.6643 33.5547C19.5459 33.6048 19.4388 33.6781 19.3492 33.7703C19.2596 33.8626 19.1894 33.9718 19.1428 34.0917C19.0962 34.2115 19.0742 34.3395 19.078 34.468V35.6835C19.0789 35.9706 19.1367 36.2546 19.248 36.5191C19.3594 36.7837 19.5222 37.0236 19.7268 37.2249C19.9314 37.4262 20.1738 37.5849 20.4401 37.692C20.7064 37.799 20.9914 37.8523 21.2784 37.8486C24.7167 37.8486 32.7897 37.8444 32.798 37.8444C34.3883 37.7497 35.8832 37.0543 36.9802 35.8991C38.0772 34.7438 38.6943 33.215 38.7067 31.6219C38.7093 30.1277 38.17 28.6832 37.189 27.5561C38.1689 26.4303 38.7081 24.9878 38.7067 23.4953Z" fill="black"/>
<path d="M21.2786 17.0059H32.5106C33.7335 17.0064 34.9313 17.3525 35.966 18.0044C37.0006 18.6563 37.83 19.5874 38.3583 20.6903C38.8867 21.7932 39.0925 23.0229 38.9521 24.2377C38.8116 25.4525 38.3306 26.6029 37.5646 27.5561C38.5518 28.7819 39.0584 30.3255 38.9893 31.8978C38.9201 33.4701 38.28 34.9634 37.189 36.0978C36.0425 37.307 34.4788 38.0343 32.8154 38.1319H32.7452C31.3773 38.1319 24.3972 38.136 21.2794 38.136C20.6234 38.1396 19.9923 37.8849 19.5227 37.4269C19.2896 37.2004 19.1046 36.9292 18.9787 36.6295C18.8527 36.3298 18.7886 36.0078 18.7899 35.6827V34.4713C18.7856 34.3046 18.8147 34.1387 18.8755 33.9835C18.9364 33.8282 19.0275 33.6866 19.1439 33.5672C19.2603 33.4478 19.3996 33.3529 19.5533 33.2881C19.7069 33.2233 19.8719 33.1899 20.0386 33.1899C20.2054 33.1899 20.3705 33.2233 20.5242 33.2881C20.6778 33.3529 20.8169 33.4478 20.9333 33.5672C21.0497 33.6866 21.1411 33.8282 21.2019 33.9835C21.2628 34.1387 21.2919 34.3046 21.2876 34.4713V35.6382H32.7734C33.5747 35.5806 34.3403 35.2837 34.9709 34.786C35.6016 34.2884 36.0682 33.6128 36.3106 32.8469C36.553 32.081 36.5598 31.2599 36.3303 30.49C36.1007 29.7201 35.6455 29.0368 35.0232 28.5287C34.8782 28.4125 34.7613 28.2651 34.6812 28.0974C34.6011 27.9297 34.5597 27.7461 34.5604 27.5602C34.5603 27.3745 34.6016 27.1911 34.6812 27.0233C34.7608 26.8555 34.8769 26.7075 35.0208 26.5901C35.6603 26.0711 36.1233 25.3669 36.3464 24.5741C36.5694 23.7813 36.5415 22.9389 36.2663 22.1627C35.9912 21.3864 35.4824 20.7144 34.8099 20.239C34.1374 19.7636 33.3342 19.5082 32.5106 19.5078H21.2876V23.9062C21.2876 24.2376 21.156 24.5553 20.9217 24.7896C20.6874 25.0239 20.3696 25.1555 20.0382 25.1555C19.7069 25.1555 19.3891 25.0239 19.1548 24.7896C18.9205 24.5553 18.7891 24.2376 18.7891 23.9062V19.4979C18.7888 18.8373 19.0508 18.2037 19.5177 17.7364C19.9845 17.2691 20.618 17.0063 21.2786 17.0059ZM32.7899 37.5562C34.3074 37.4698 35.7346 36.8077 36.7806 35.7049C37.8266 34.6021 38.4125 33.1418 38.4187 31.6219C38.4198 30.1975 37.9058 28.8208 36.9716 27.7455L36.807 27.5561L36.9716 27.3667C37.7146 26.5108 38.196 25.4594 38.3581 24.3378C38.5203 23.2161 38.3566 22.0714 37.8865 21.0402C37.4163 20.0089 36.6595 19.1346 35.7064 18.5214C34.7533 17.9082 33.6439 17.5819 32.5106 17.5815H21.2786C20.7715 17.5818 20.2853 17.7831 19.9266 18.1415C19.568 18.4998 19.3661 18.9859 19.3655 19.4929V23.9013C19.3623 23.9916 19.3774 24.0816 19.4097 24.1659C19.4421 24.2502 19.4911 24.3272 19.5539 24.3922C19.6166 24.4572 19.6919 24.5088 19.775 24.5441C19.8582 24.5794 19.9475 24.5976 20.0378 24.5976C20.1282 24.5976 20.2177 24.5794 20.3008 24.5441C20.384 24.5088 20.459 24.4572 20.5218 24.3922C20.5845 24.3272 20.6336 24.2502 20.6659 24.1659C20.6983 24.0816 20.7135 23.9916 20.7104 23.9013V19.4929C20.7108 19.3427 20.7707 19.1988 20.877 19.0928C20.9834 18.9867 21.1275 18.9272 21.2777 18.9272H32.5098C33.4528 18.9271 34.3726 19.2192 35.1428 19.7634C35.9131 20.3075 36.4959 21.0769 36.811 21.9657C37.1261 22.8545 37.158 23.8192 36.9025 24.7269C36.6469 25.6346 36.1164 26.4409 35.3839 27.0348C35.3066 27.0983 35.2443 27.1781 35.2015 27.2685C35.1588 27.3589 35.1367 27.4577 35.1368 27.5577C35.1362 27.6575 35.1582 27.7561 35.2009 27.8462C35.2437 27.9363 35.3063 28.0156 35.3839 28.0782C36.0968 28.6599 36.6184 29.4424 36.881 30.3242C37.1435 31.206 37.1349 32.1464 36.8562 33.0232C36.5776 33.9001 36.0419 34.6729 35.3186 35.2414C34.5952 35.81 33.7176 36.1479 32.7997 36.2114H21.2777C21.1272 36.2112 20.9828 36.1512 20.8764 36.0447C20.77 35.9382 20.7104 35.7938 20.7104 35.6432V34.468C20.7104 34.2897 20.6394 34.1186 20.5133 33.9925C20.3872 33.8664 20.2162 33.7956 20.0378 33.7956C19.8595 33.7956 19.6884 33.8664 19.5623 33.9925C19.4362 34.1186 19.3655 34.2897 19.3655 34.468V35.6835C19.3652 35.933 19.4148 36.1801 19.5113 36.4103C19.6077 36.6404 19.749 36.849 19.927 37.0238C20.1051 37.1986 20.3164 37.3361 20.5483 37.4282C20.7802 37.5204 21.0283 37.5653 21.2777 37.5604C24.3956 37.5604 31.3757 37.5604 32.7436 37.5562H32.7899Z" fill="#EBF4FF"/>
<path d="M31.6434 28.5188H17.8461C17.5997 28.5063 17.3676 28.3997 17.1977 28.2209C17.0277 28.0421 16.9329 27.8049 16.9329 27.5582C16.9329 27.3115 17.0277 27.0743 17.1977 26.8955C17.3676 26.7167 17.5997 26.61 17.8461 26.5975H31.6434C31.8898 26.61 32.1219 26.7167 32.2918 26.8955C32.4618 27.0743 32.5566 27.3115 32.5566 27.5582C32.5566 27.8049 32.4618 28.0421 32.2918 28.2209C32.1219 28.3997 31.8898 28.5063 31.6434 28.5188Z" fill="#5055B1"/>
<path d="M31.6433 28.7214H17.8459C17.5419 28.7133 17.2531 28.5869 17.0409 28.369C16.8287 28.1511 16.71 27.859 16.71 27.5548C16.71 27.2507 16.8287 26.9587 17.0409 26.7408C17.2531 26.5229 17.5419 26.3964 17.8459 26.3884H31.6433C31.9473 26.3964 32.2361 26.5229 32.4483 26.7408C32.6605 26.9587 32.7792 27.2507 32.7792 27.5548C32.7792 27.859 32.6605 28.1511 32.4483 28.369C32.2361 28.5869 31.9473 28.7133 31.6433 28.7214ZM17.8459 26.8001C17.6532 26.8112 17.472 26.8955 17.3395 27.0358C17.2069 27.1762 17.1332 27.3618 17.1332 27.5548C17.1332 27.7479 17.2069 27.9336 17.3395 28.0739C17.472 28.2143 17.6532 28.2986 17.8459 28.3096H31.6433C31.836 28.2986 32.0172 28.2143 32.1497 28.0739C32.2823 27.9336 32.3562 27.7479 32.3562 27.5548C32.3562 27.3618 32.2823 27.1762 32.1497 27.0358C32.0172 26.8955 31.836 26.8112 31.6433 26.8001H17.8459Z" fill="#EBF4FF"/>
<path d="M22.1885 31.7619H14.9611C14.8326 31.7657 14.7048 31.7436 14.5849 31.697C14.4651 31.6504 14.3557 31.5803 14.2635 31.4907C14.1712 31.4011 14.098 31.294 14.0479 31.1755C13.9979 31.0571 13.9719 30.9298 13.9719 30.8013C13.9719 30.6727 13.9979 30.5454 14.0479 30.427C14.098 30.3086 14.1712 30.2014 14.2635 30.1118C14.3557 30.0222 14.4651 29.9521 14.5849 29.9055C14.7048 29.8589 14.8326 29.8369 14.9611 29.8406H22.1885C22.4384 29.8479 22.6756 29.9523 22.8498 30.1317C23.024 30.3111 23.1214 30.5513 23.1214 30.8013C23.1214 31.0513 23.024 31.2914 22.8498 31.4708C22.6756 31.6501 22.4384 31.7546 22.1885 31.7619Z" fill="#5055B1"/>
<path d="M22.1885 31.9678H14.9611C14.8053 31.9719 14.6502 31.9447 14.5051 31.888C14.3599 31.8312 14.2277 31.746 14.116 31.6373C14.0044 31.5285 13.9157 31.3985 13.8551 31.2549C13.7945 31.1113 13.7632 30.9571 13.7632 30.8012C13.7632 30.6454 13.7945 30.4911 13.8551 30.3475C13.9157 30.2039 14.0044 30.0739 14.116 29.9652C14.2277 29.8564 14.3599 29.7712 14.5051 29.7144C14.6502 29.6576 14.8053 29.6305 14.9611 29.6347H22.1885C22.4925 29.6428 22.7813 29.7692 22.9935 29.9871C23.2057 30.205 23.3244 30.4971 23.3244 30.8012C23.3244 31.1053 23.2057 31.3975 22.9935 31.6154C22.7813 31.8332 22.4925 31.9597 22.1885 31.9678ZM14.9611 30.0465C14.8599 30.0431 14.759 30.0601 14.6645 30.0966C14.57 30.133 14.484 30.1881 14.4112 30.2585C14.3384 30.3289 14.2804 30.4132 14.2409 30.5065C14.2014 30.5997 14.181 30.7 14.181 30.8012C14.181 30.9025 14.2014 31.0027 14.2409 31.096C14.2804 31.1892 14.3384 31.2735 14.4112 31.3439C14.484 31.4143 14.57 31.4694 14.6645 31.5058C14.759 31.5423 14.8599 31.5593 14.9611 31.556H22.1885C22.3843 31.5495 22.5699 31.4672 22.7062 31.3263C22.8425 31.1855 22.9187 30.9972 22.9187 30.8012C22.9187 30.6053 22.8425 30.417 22.7062 30.2761C22.5699 30.1353 22.3843 30.0529 22.1885 30.0465H14.9611Z" fill="#EBF4FF"/>
</g>
<defs>
<clipPath id="clip0_2103_721">
<rect width="56" height="56" fill="white" transform="translate(0.000244141)"/>
</clipPath>
</defs>
</svg>
