<svg width="56" height="57" viewBox="0 0 56 57" fill="none" xmlns="http://www.w3.org/2000/svg">
<g clip-path="url(#clip0_2103_844)">
<path d="M39.5297 0H16.4708C7.37438 0 0.000244141 7.50581 0.000244141 16.7647V40.2353C0.000244141 49.4942 7.37438 57 16.4708 57H39.5297C48.6261 57 56.0002 49.4942 56.0002 40.2353V16.7647C56.0002 7.50581 48.6261 0 39.5297 0Z" fill="#EBF4FF"/>
<path d="M17.2943 23.0515C17.1851 23.0515 17.0803 23.0956 17.0031 23.1742C16.9259 23.2528 16.8825 23.3594 16.8825 23.4706V36.8824C16.8825 36.9935 16.9259 37.1001 17.0031 37.1787C17.0803 37.2573 17.1851 37.3015 17.2943 37.3015H20.5884C20.916 37.3015 21.2302 37.169 21.4619 36.9332C21.6935 36.6974 21.8237 36.3776 21.8237 36.0441V24.3088C21.8237 23.9754 21.6935 23.6556 21.4619 23.4198C21.2302 23.184 20.916 23.0515 20.5884 23.0515H17.2943ZM17.2943 21.7941H20.5884C21.2436 21.7941 21.872 22.0591 22.3354 22.5307C22.7987 23.0023 23.059 23.6419 23.059 24.3088V36.0441C23.059 36.7111 22.7987 37.3507 22.3354 37.8223C21.872 38.2939 21.2436 38.5588 20.5884 38.5588H17.2943C16.8574 38.5588 16.4385 38.3822 16.1296 38.0678C15.8207 37.7534 15.6472 37.327 15.6472 36.8824V23.4706C15.6472 23.026 15.8207 22.5996 16.1296 22.2852C16.4385 21.9708 16.8574 21.7941 17.2943 21.7941Z" fill="black"/>
<path d="M22.6522 25.6007C22.5116 25.6006 22.3753 25.5515 22.2657 25.4619C22.1561 25.3723 22.0798 25.2476 22.0494 25.1079C22.0318 25.0272 22.0299 24.9437 22.044 24.8623C22.0581 24.7809 22.0878 24.7032 22.1314 24.6335C22.175 24.5638 22.2316 24.5037 22.2981 24.4563C22.3646 24.4089 22.4396 24.3755 22.5188 24.3576C23.8721 24.0158 25.1216 23.339 26.1563 22.3877C27.6239 20.8889 29.1005 17.1251 29.1153 17.0873L29.1326 17.0431L29.1565 17.0022C29.4239 16.5569 29.8427 16.2266 30.3333 16.0747C30.824 15.9229 31.3523 15.9596 31.8181 16.1779C33.447 16.8485 33.4059 18.5253 33.3828 19.3258V19.3994C33.3647 20.1966 32.7149 23.1993 31.571 24.5295C31.4633 24.6551 31.3111 24.7319 31.1477 24.7432C30.9843 24.7545 30.8232 24.6993 30.6998 24.5897C30.5764 24.4801 30.5008 24.325 30.4897 24.1587C30.4786 23.9924 30.5328 23.8284 30.6405 23.7028C31.4615 22.3955 31.9763 20.9136 32.1451 19.3716V19.2955C32.1665 18.417 32.1211 17.6633 31.3487 17.3448C31.2195 17.2786 31.0766 17.2451 30.9319 17.247C30.7873 17.2489 30.6452 17.2863 30.5178 17.3558C30.4069 17.4232 30.3101 17.5121 30.2328 17.6174C30.0187 18.1564 28.5767 21.6937 27.026 23.2771C25.8262 24.4011 24.3653 25.1959 22.7807 25.5872C22.7384 25.596 22.6954 25.6006 22.6522 25.6007Z" fill="black"/>
<path d="M37.5614 28.563H33.788C33.6242 28.563 33.467 28.4967 33.3512 28.3788C33.2354 28.2609 33.1703 28.1011 33.1703 27.9343C33.1703 27.7676 33.2354 27.6073 33.3512 27.4894C33.467 27.3715 33.6242 27.3057 33.788 27.3057H37.521C37.6876 27.2852 37.8478 27.2278 37.9904 27.1379C38.1288 27.0363 38.2378 26.8987 38.3062 26.7396C38.3745 26.5805 38.3998 26.4057 38.3792 26.2333C38.3943 26.0553 38.3644 25.8764 38.2923 25.7135C38.2202 25.5506 38.1084 25.4094 37.9674 25.303C37.8304 25.2119 37.6755 25.1524 37.5136 25.1286H29.3376C29.1738 25.1286 29.0167 25.0623 28.9009 24.9444C28.785 24.8265 28.72 24.6667 28.72 24.5C28.72 24.3332 28.785 24.1734 28.9009 24.0555C29.0167 23.9376 29.1738 23.8713 29.3376 23.8713H37.5811C37.9375 23.9044 38.2817 24.0207 38.5866 24.2114C38.9169 24.4227 39.186 24.7197 39.3663 25.0717C39.5466 25.4238 39.6317 25.8183 39.6128 26.2149C39.6387 26.6134 39.5576 27.0118 39.3784 27.3671C39.1991 27.7223 38.9282 28.0212 38.5949 28.2319C38.2838 28.42 37.9344 28.533 37.5737 28.5622L37.5614 28.563Z" fill="black"/>
<path d="M37.5613 31.9989H33.7829C33.6191 31.9989 33.4621 31.9327 33.3462 31.8148C33.2304 31.6969 33.1653 31.537 33.1653 31.3703C33.1653 31.2035 33.2304 31.0433 33.3462 30.9254C33.4621 30.8075 33.6191 30.7416 33.7829 30.7416H37.5209C37.6875 30.7211 37.8477 30.6638 37.9903 30.5738C38.1287 30.4722 38.2377 30.3346 38.3061 30.1755C38.3745 30.0164 38.3997 29.8416 38.3791 29.6692C38.3942 29.4913 38.3643 29.3123 38.2922 29.1494C38.2202 28.9866 38.1083 28.8453 37.9673 28.7389C37.8304 28.6478 37.6755 28.5883 37.5135 28.5645H34.4772C34.3134 28.5645 34.1563 28.4983 34.0404 28.3804C33.9246 28.2625 33.8595 28.1026 33.8595 27.9359C33.8595 27.7691 33.9246 27.6093 34.0404 27.4914C34.1563 27.3735 34.3134 27.3072 34.4772 27.3072H37.5802C37.9367 27.3404 38.2808 27.4566 38.5858 27.6473C38.916 27.8586 39.1851 28.1556 39.3654 28.5077C39.5457 28.8597 39.6308 29.2543 39.6119 29.6508C39.6378 30.0493 39.5567 30.4477 39.3774 30.803C39.1981 31.1582 38.9274 31.4571 38.594 31.6678C38.2829 31.8559 37.9336 31.969 37.5729 31.9981L37.5613 31.9989Z" fill="black"/>
<path d="M37.5614 35.434H33.9939C33.8301 35.434 33.673 35.3677 33.5571 35.2498C33.4413 35.1319 33.3762 34.9721 33.3762 34.8054C33.3762 34.6386 33.4413 34.4783 33.5571 34.3604C33.673 34.2425 33.8301 34.1767 33.9939 34.1767H37.5202C37.6868 34.1562 37.847 34.0989 37.9896 34.0089C38.128 33.9073 38.237 33.7697 38.3054 33.6106C38.3738 33.4515 38.3989 33.2767 38.3783 33.1043C38.395 32.9205 38.363 32.7356 38.2856 32.5686C38.2083 32.4016 38.0885 32.2587 37.9386 32.1548C37.8097 32.0754 37.6667 32.0229 37.5177 32.0005H34.4789C34.3151 32.0005 34.158 31.9342 34.0422 31.8163C33.9263 31.6984 33.8613 31.5385 33.8613 31.3718C33.8613 31.205 33.9263 31.0452 34.0422 30.9273C34.158 30.8094 34.3151 30.7431 34.4789 30.7431H37.582C37.9384 30.7763 38.2825 30.8925 38.5875 31.0832C38.9178 31.2945 39.1868 31.5915 39.3672 31.9436C39.5475 32.2956 39.6325 32.6902 39.6136 33.0867C39.6395 33.4852 39.5585 33.8836 39.3792 34.2389C39.1999 34.5941 38.9291 34.8931 38.5958 35.1037C38.2847 35.2919 37.9353 35.4049 37.5745 35.434H37.5614Z" fill="black"/>
<path d="M30.6891 38.4508C29.3303 38.4508 27.997 38.4213 27.0573 38.3333C25.2872 38.1697 23.6069 37.4657 22.2364 36.3138C22.1764 36.2582 22.1278 36.1913 22.0933 36.1165C22.0588 36.0418 22.0391 35.9609 22.0353 35.8783C22.0316 35.7958 22.0438 35.7133 22.0714 35.6356C22.099 35.5579 22.1414 35.4867 22.1961 35.4257C22.3063 35.3027 22.4598 35.2293 22.6232 35.2214C22.7865 35.2136 22.9462 35.2717 23.0674 35.3835C24.2423 36.3451 25.6685 36.9349 27.1694 37.08C29.7421 37.3206 35.6377 37.0976 36.0972 37.08C36.2373 37.056 36.3717 37.0056 36.4933 36.931C36.5929 36.8707 36.674 36.7832 36.7276 36.6785C36.7811 36.5738 36.805 36.4561 36.7964 36.3384C36.8026 36.2059 36.7749 36.0741 36.7162 35.9557C36.6574 35.8373 36.5696 35.7363 36.4612 35.6626C36.3278 35.5668 36.1786 35.4961 36.0207 35.4539H36.0264L36.2735 34.2219C36.7626 34.3143 37.2052 34.576 37.5259 34.9632C37.8466 35.3503 38.0256 35.8386 38.0325 36.3449C38.0311 36.849 37.8425 37.3341 37.5045 37.7026C37.1664 38.071 36.704 38.2957 36.21 38.3317H36.1747C36.0058 38.3425 33.3014 38.4508 30.6891 38.4508Z" fill="black"/>
<path d="M19.3532 35.2059C20.0354 35.2059 20.5885 34.6429 20.5885 33.9485C20.5885 33.2541 20.0354 32.6912 19.3532 32.6912C18.671 32.6912 18.1179 33.2541 18.1179 33.9485C18.1179 34.6429 18.671 35.2059 19.3532 35.2059Z" fill="#5055B1"/>
</g>
<defs>
<clipPath id="clip0_2103_844">
<rect width="56" height="57" fill="white" transform="translate(0.000244141)"/>
</clipPath>
</defs>
</svg>
