<svg width="56" height="57" viewBox="0 0 56 57" fill="none" xmlns="http://www.w3.org/2000/svg">
<g clip-path="url(#clip0_2103_757)">
<path d="M39.5297 0H16.4708C7.37438 0 0.000244141 7.50581 0.000244141 16.7647V40.2353C0.000244141 49.4942 7.37438 57 16.4708 57H39.5297C48.6261 57 56.0002 49.4942 56.0002 40.2353V16.7647C56.0002 7.50581 48.6261 0 39.5297 0Z" fill="#EBF4FF"/>
<path d="M17.911 34.4758C17.7127 34.2805 17.559 34.0433 17.4608 33.7808C17.3626 33.5183 17.3224 33.2371 17.3428 32.957C17.364 32.7538 17.46 32.5664 17.6116 32.4326C17.7633 32.2988 17.9592 32.2285 18.1597 32.236H23.6073V31.7231H18.1507H18.1169H17.3305V30.9754C17.3305 30.9695 17.3305 30.9628 17.3305 30.9578C17.3402 30.7452 17.4323 30.5451 17.5867 30.4016C17.7411 30.2582 17.9452 30.1828 18.1541 30.1924H24.2976C24.4973 30.1845 24.6927 30.2538 24.8444 30.3862C24.9962 30.5186 25.0932 30.7045 25.1161 30.9066V33.0022C25.1114 33.1075 25.0864 33.2108 25.0425 33.3063C24.9986 33.4018 24.9366 33.4875 24.8601 33.5585C24.7836 33.6296 24.6941 33.6847 24.5967 33.7205C24.4994 33.7564 24.396 33.7723 24.2925 33.7675H19.4469C19.8986 34.008 20.3842 34.1757 20.8864 34.2646C22.2813 34.5069 23.6995 34.5801 25.1112 34.4825V36.0148C24.6674 36.0341 24.24 36.045 23.8331 36.045C20.8511 36.0442 18.8605 35.5185 17.911 34.4758ZM42.5485 34.4415C42.8136 34.4273 43.0731 34.3586 43.3113 34.2394C43.5496 34.1203 43.7616 33.9532 43.9346 33.7482C44.3416 33.163 44.5601 32.4635 44.5597 31.7465H38.3577V30.9518C38.3775 30.7432 38.4754 30.5503 38.6311 30.4131C38.7869 30.2759 38.9886 30.2051 39.1943 30.2151H45.2564C45.4491 30.2071 45.6384 30.2692 45.7904 30.3902C45.9423 30.5112 46.047 30.6833 46.0857 30.8756C46.0857 30.8756 46.0857 30.8856 46.0857 30.8948C46.0857 30.9041 46.0857 30.9066 46.0857 30.9133C46.2326 32.2671 45.8897 33.629 45.1212 34.7441C44.8032 35.1284 44.4094 35.4403 43.9652 35.6596C43.5209 35.8788 43.0363 36.0004 42.5429 36.0165L42.5485 34.4415ZM32.7337 32.2067V31.7356H26.8488V31.3651H32.7363V31.2528H26.8488L26.8982 30.7348L32.7337 30.7239H34.1009V23.6643L34.1733 23.6576L34.622 23.619V30.4087C34.5999 30.4518 34.5861 30.4987 34.581 30.5471C34.581 30.5588 34.581 30.5721 34.581 30.5847C34.5798 30.6482 34.594 30.7111 34.6229 30.7675V30.8572C34.632 30.952 34.6117 31.0473 34.5645 31.1296C34.5336 31.1659 34.4956 31.1954 34.4532 31.2165C34.4107 31.2375 34.3646 31.2496 34.3174 31.252H34.1775C34.1351 31.2288 34.0887 31.2145 34.0408 31.21H34.0036C33.9406 31.2087 33.8782 31.2237 33.8224 31.2536H33.5753V31.3659H33.8315L33.8405 31.3584C33.8789 31.3252 33.9263 31.3048 33.9765 31.2997H34.0012C34.0532 31.2997 34.104 31.3165 34.1461 31.3475C34.1546 31.3533 34.1627 31.3597 34.1701 31.3668H34.3422C34.3954 31.3655 34.4478 31.3529 34.496 31.3298C34.5442 31.3067 34.5871 31.2737 34.622 31.2327C34.6842 31.1632 34.7224 31.0748 34.7308 30.9812V30.7582L34.7234 30.7499C34.6909 30.711 34.6708 30.6631 34.6657 30.6124C34.6651 30.6041 34.6651 30.5956 34.6657 30.5873C34.6659 30.5366 34.6813 30.4872 34.7095 30.4455C34.7165 30.4355 34.7241 30.426 34.7324 30.4171V23.6173H35.0998V30.4799C35.0735 30.49 35.051 30.5079 35.0348 30.5312C35.0187 30.5545 35.0096 30.5822 35.0091 30.6107C35.0092 30.6359 35.0163 30.6607 35.0292 30.6822C35.0421 30.7038 35.0605 30.7214 35.0825 30.7331C35.0879 30.7363 35.0937 30.7388 35.0998 30.7406V30.8521C35.1164 31.0808 35.0432 31.3069 34.8963 31.4808C34.8265 31.5592 34.7416 31.6221 34.6468 31.6653C34.552 31.7086 34.4493 31.7314 34.3454 31.7323H34.1355C34.1268 31.7039 34.1093 31.6792 34.0858 31.6616C34.0623 31.644 34.034 31.6344 34.0048 31.6344C33.9756 31.6344 33.9473 31.644 33.9238 31.6616C33.9003 31.6792 33.883 31.7039 33.8743 31.7323H33.5761V32.4406L33.1423 32.2008L32.7363 32.4415L32.7337 32.2067ZM14.8483 31.7465V30.9452C14.8483 30.936 14.8483 30.9267 14.8483 30.9175V24.3793C14.8483 24.1755 14.9279 23.9801 15.0695 23.8361C15.211 23.692 15.4029 23.611 15.6031 23.611C15.8032 23.611 15.9953 23.692 16.1369 23.8361C16.2784 23.9801 16.3578 24.1755 16.3578 24.3793V30.9175C16.361 31.1277 16.2842 31.3311 16.1437 31.4853C16.0032 31.6394 15.8097 31.7324 15.6035 31.7449H15.5862L14.8483 31.7465ZM33.965 30.6115H26.9163C26.9741 30.4904 27.0638 30.388 27.1755 30.3159C27.2872 30.2438 27.4166 30.2048 27.5489 30.2033H33.3333C33.4797 30.2035 33.6224 30.2513 33.7402 30.3399C33.6454 30.2238 33.5929 30.0778 33.5918 29.9268V24.2997C33.5946 24.1692 33.6338 24.0422 33.7046 23.9335C33.7755 23.8247 33.8752 23.7386 33.9921 23.6852V30.6133L33.965 30.6115ZM33.7591 30.3601C33.7533 30.3534 33.7476 30.3467 33.7418 30.3391L33.7591 30.3601ZM36.3984 29.4883C36.3282 29.4165 36.2728 29.3313 36.2351 29.2376C36.1974 29.1439 36.1783 29.0435 36.1788 28.9422C36.1794 28.8409 36.1997 28.7408 36.2383 28.6475C36.277 28.5542 36.3333 28.4696 36.4042 28.3986L39.401 25.3575H36.9123C36.7171 25.3509 36.532 25.2674 36.3962 25.1245C36.2604 24.9816 36.1845 24.7906 36.1845 24.5918C36.1845 24.393 36.2604 24.2019 36.3962 24.059C36.532 23.9161 36.7171 23.8326 36.9123 23.826H41.2358C41.4212 23.8284 41.599 23.9015 41.734 24.0308C41.8691 24.16 41.9517 24.3361 41.9655 24.5243C41.9655 24.531 41.9655 24.536 41.9655 24.5419C41.9655 24.5477 41.9655 24.5745 41.9655 24.5913C41.9654 24.6935 41.9457 24.7948 41.9071 24.8892C41.8686 24.9835 41.8119 25.0691 41.7407 25.1412L40.1183 26.7875C40.5366 26.9329 40.9142 27.1788 41.2193 27.5043C41.7469 28.1035 42.0218 28.8899 41.9846 29.6937H40.4732C40.5041 29.2784 40.375 28.8671 40.1133 28.5469C39.7584 28.2309 39.2952 28.0704 38.8245 28.1002L38.5593 28.3693L38.5471 28.3793L37.4658 29.4765C37.3947 29.5491 37.3103 29.6067 37.2173 29.646C37.1243 29.6853 37.0246 29.7055 36.924 29.7054C36.7292 29.7061 36.5419 29.6294 36.4018 29.4917L36.3984 29.4883ZM45.2473 29.6979H44.5102V26.78H44.0046V28.9242C44.005 29.0254 43.9858 29.1257 43.9481 29.2194C43.9104 29.3131 43.8551 29.3983 43.785 29.4702C43.715 29.5421 43.6317 29.5991 43.5399 29.6382C43.4482 29.6773 43.3497 29.6975 43.2502 29.6979H42.4958V24.3591C42.4958 24.2583 42.5154 24.1585 42.5533 24.0654C42.5913 23.9722 42.6468 23.8875 42.7168 23.8162C42.7868 23.7449 42.87 23.6884 42.9615 23.6498C43.053 23.6112 43.1511 23.5913 43.2502 23.5913C43.3493 23.5913 43.4474 23.6112 43.5389 23.6498C43.6304 23.6884 43.7136 23.7449 43.7836 23.8162C43.8537 23.8875 43.9092 23.9722 43.9471 24.0654C43.985 24.1585 44.0046 24.2583 44.0046 24.3591V25.2493H44.5102V24.3591C44.5102 24.1555 44.5897 23.9602 44.7312 23.8162C44.8727 23.6722 45.0645 23.5913 45.2646 23.5913C45.4647 23.5913 45.6565 23.6722 45.798 23.8162C45.9395 23.9602 46.019 24.1555 46.019 24.3591V28.9242C46.0194 29.0254 46.0002 29.1257 45.9625 29.2194C45.9248 29.3131 45.8695 29.3983 45.7994 29.4702C45.7294 29.5421 45.6459 29.5991 45.5541 29.6382C45.4624 29.6773 45.3641 29.6975 45.2646 29.6979H45.2473ZM24.3297 29.6878H23.5927V24.3575C23.5927 24.2567 23.6121 24.1568 23.65 24.0636C23.6879 23.9705 23.7436 23.8859 23.8136 23.8146C23.8837 23.7433 23.9668 23.6867 24.0583 23.6481C24.1498 23.6095 24.248 23.5897 24.347 23.5897C24.4461 23.5897 24.544 23.6095 24.6355 23.6481C24.7271 23.6867 24.8104 23.7433 24.8804 23.8146C24.9505 23.8859 25.006 23.9705 25.0439 24.0636C25.0818 24.1568 25.1012 24.2567 25.1012 24.3575V25.2485H25.8425C26.0326 25.2464 26.2167 25.3165 26.3588 25.4452C26.5009 25.5738 26.5907 25.7517 26.6107 25.9442C26.6206 26.0506 26.6086 26.158 26.5753 26.2593C26.5421 26.3606 26.4882 26.4537 26.4175 26.5326C26.3468 26.6115 26.2607 26.6746 26.1646 26.7176C26.0685 26.7606 25.9647 26.7827 25.8598 26.7825H25.1004V28.9174C25.1007 29.0186 25.0816 29.1189 25.0439 29.2124C25.0062 29.306 24.9507 29.3912 24.8806 29.4629C24.8106 29.5347 24.7272 29.5917 24.6355 29.6307C24.5438 29.6698 24.4454 29.69 24.346 29.6903L24.3297 29.6878ZM18.0839 29.6878C18.0542 29.6876 18.0246 29.6855 17.995 29.6819H17.3362V24.5561C17.3357 24.4559 17.3547 24.3566 17.3921 24.2639C17.4294 24.1711 17.4843 24.0868 17.5537 24.0157C17.6231 23.9446 17.7055 23.8883 17.7964 23.8497C17.8872 23.8111 17.9847 23.791 18.0831 23.7908H22.3409C22.5403 23.7908 22.7315 23.8715 22.8725 24.015C23.0135 24.1585 23.0926 24.3531 23.0926 24.5561C23.0926 24.7591 23.0135 24.9538 22.8725 25.0973C22.7315 25.2408 22.5403 25.3215 22.3409 25.3215H18.8449V28.1564H22.3409C22.5403 28.1564 22.7315 28.237 22.8725 28.3806C23.0135 28.5241 23.0926 28.7187 23.0926 28.9216C23.0926 29.1246 23.0135 29.3193 22.8725 29.4628C22.7315 29.6064 22.5403 29.687 22.3409 29.687L18.0839 29.6878ZM27.2038 26.7339C27.2027 26.1522 27.3711 25.5832 27.6878 25.099C28.0044 24.6148 28.455 24.2372 28.9826 24.0138C29.5102 23.7904 30.0912 23.7314 30.6518 23.8441C31.2124 23.9569 31.7275 24.2364 32.132 24.6473C32.5364 25.0582 32.8122 25.5819 32.9241 26.1524C33.036 26.7228 32.9791 27.3141 32.7607 27.8516C32.5422 28.3891 32.1721 28.8485 31.6971 29.1718C31.222 29.4951 30.6633 29.6677 30.0918 29.6677C29.3272 29.6684 28.5937 29.3604 28.0519 28.8111C27.5102 28.2619 27.2044 27.5163 27.202 26.7381L27.2038 26.7339ZM28.6696 26.7339C28.6687 27.0204 28.7516 27.3006 28.9074 27.5392C29.0632 27.7779 29.285 27.9641 29.5448 28.0743C29.8046 28.1845 30.0907 28.2138 30.3669 28.1584C30.643 28.103 30.8968 27.9654 31.0961 27.7631C31.2954 27.5608 31.4314 27.3029 31.4866 27.022C31.5418 26.7411 31.5139 26.4499 31.4063 26.1851C31.2988 25.9203 31.1164 25.694 30.8824 25.5347C30.6484 25.3755 30.3733 25.2905 30.0918 25.2905C29.9049 25.2902 29.7198 25.3274 29.547 25.4C29.3742 25.4726 29.2172 25.5791 29.0849 25.7136C28.9527 25.8481 28.8477 26.0078 28.7761 26.1836C28.7046 26.3594 28.6678 26.5478 28.6679 26.7381L28.6696 26.7339ZM8.23633 26.7339C8.23519 26.1522 8.40359 25.5833 8.72028 25.099C9.03697 24.6148 9.4876 24.2371 10.0153 24.0137C10.543 23.7903 11.1238 23.7313 11.6845 23.8441C12.2451 23.957 12.7604 24.2366 13.1648 24.6476C13.5693 25.0586 13.8448 25.5824 13.9566 26.1529C14.0684 26.7233 14.0115 27.3147 13.7929 27.8522C13.5744 28.3896 13.2041 28.8491 12.729 29.1722C12.2538 29.4954 11.695 29.6678 11.1235 29.6677C10.3594 29.6677 9.62648 29.3593 9.0854 28.8101C8.54432 28.2609 8.23932 27.5158 8.23714 26.7381L8.23633 26.7339ZM9.70204 26.7339C9.70122 27.0204 9.78411 27.3006 9.93989 27.5392C10.0957 27.7779 10.3174 27.9641 10.5772 28.0743C10.837 28.1845 11.1232 28.2138 11.3994 28.1584C11.6755 28.103 11.9293 27.9654 12.1286 27.7631C12.3279 27.5608 12.4638 27.3029 12.519 27.022C12.5743 26.7411 12.5461 26.4499 12.4386 26.1851C12.3311 25.9203 12.1488 25.694 11.9149 25.5347C11.6809 25.3755 11.4058 25.2905 11.1243 25.2905C10.9374 25.2903 10.7524 25.3275 10.5797 25.4002C10.4069 25.4728 10.2499 25.5793 10.1176 25.7138C9.98538 25.8482 9.88038 26.0079 9.8088 26.1837C9.73722 26.3594 9.70043 26.5478 9.70043 26.7381L9.70204 26.7339ZM38.3165 22.5603C38.316 22.4074 38.36 22.2577 38.4431 22.1303C38.5262 22.0029 38.6447 21.9034 38.7833 21.8445C38.922 21.7856 39.0746 21.7699 39.222 21.7994C39.3695 21.8289 39.505 21.9022 39.6115 22.0101C39.7179 22.118 39.7906 22.2556 39.8202 22.4056C39.8498 22.5555 39.835 22.711 39.7778 22.8524C39.7205 22.9938 39.6233 23.1147 39.4985 23.1998C39.3737 23.2849 39.2269 23.3305 39.0767 23.3307C38.977 23.3311 38.8782 23.3115 38.7859 23.2731C38.6937 23.2346 38.6098 23.1781 38.539 23.1066C38.4683 23.0351 38.412 22.9502 38.3736 22.8566C38.3351 22.763 38.3152 22.6626 38.3149 22.5611L38.3165 22.5603Z" fill="#070203"/>
</g>
<defs>
<clipPath id="clip0_2103_757">
<rect width="56" height="57" fill="white" transform="translate(0.000244141)"/>
</clipPath>
</defs>
</svg>
