<svg width="57" height="56" viewBox="0 0 57 56" fill="none" xmlns="http://www.w3.org/2000/svg">
<g clip-path="url(#clip0_2103_820)">
<path d="M40.2353 0H16.7647C7.50581 0 0 7.37413 0 16.4706V39.5294C0 48.6259 7.50581 56 16.7647 56H40.2353C49.4942 56 57 48.6259 57 39.5294V16.4706C57 7.37413 49.4942 0 40.2353 0Z" fill="#EBF4FF"/>
<path d="M20.1531 33.88C20.3082 33.8886 20.4625 33.8528 20.5972 33.7768L23.5125 32.2591C23.5548 32.238 23.5955 32.2139 23.6342 32.1869L23.708 32.1329L23.7274 32.1222L33.0273 22.9552C32.9789 22.8098 32.8968 22.6774 32.7875 22.5685L30.9522 20.663C30.8659 20.57 30.7621 20.4946 30.6464 20.4408L21.3873 29.5642L21.3696 29.6032L21.2994 29.7021C21.2784 29.7319 21.2591 29.7628 21.2415 29.7947L19.6387 32.6829C19.561 32.8039 19.5167 32.9427 19.5102 33.0856C19.5037 33.2285 19.5352 33.3706 19.6016 33.498C19.6555 33.6009 19.7343 33.6892 19.8312 33.7551C19.928 33.8211 20.0398 33.8627 20.1568 33.8762M20.0474 35.1066C19.7092 35.0686 19.386 34.9479 19.1075 34.7555C18.829 34.563 18.604 34.3051 18.4533 34.0052C18.3025 33.7052 18.2307 33.373 18.2445 33.0387C18.2582 32.7045 18.3571 32.379 18.532 32.092L20.1348 29.2038C20.1739 29.1337 20.2167 29.0656 20.2631 28.9999C20.3036 28.9077 20.3612 28.8238 20.4332 28.7525L29.9132 19.4142C30.3567 18.9771 31.2308 19.1562 31.8647 19.814L33.7008 21.7196C34.3347 22.3773 34.4888 23.265 34.0453 23.7021L24.5688 33.0382C24.5139 33.0921 24.4512 33.1377 24.3827 33.1735C24.2935 33.2384 24.1994 33.2967 24.1013 33.3477L21.1858 34.8679C20.8373 35.0562 20.4403 35.1404 20.0437 35.1104L20.0474 35.1066Z" fill="black"/>
<path d="M17.2491 35.1467C17.0035 35.3879 17.0035 35.779 17.2491 36.0202C17.4946 36.2614 17.8926 36.2614 18.1381 36.0202L19.6199 34.5644C19.8655 34.3232 19.8655 33.9321 19.6199 33.6909C19.3744 33.4497 18.9764 33.4497 18.7309 33.6909L17.2491 35.1467Z" fill="black"/>
<path d="M29.1932 24.1742C29.4387 24.4154 29.8368 24.4154 30.0823 24.1742C30.3278 23.933 30.3278 23.5419 30.0823 23.3007L28.6485 21.892C28.403 21.6508 28.005 21.6508 27.7594 21.892C27.5139 22.1333 27.5139 22.5243 27.7594 22.7655L29.1932 24.1742Z" fill="black"/>
<path d="M36.8079 16.2365L37.5049 16.9213C37.8993 17.3098 38.1208 17.836 38.1208 18.3847C38.1208 18.9334 37.8993 19.4597 37.5049 19.8481C37.387 19.9639 37.2271 20.029 37.0604 20.029C36.8936 20.029 36.7337 19.9639 36.6158 19.8481C36.4979 19.7323 36.4317 19.5752 36.4317 19.4113C36.4317 19.2475 36.4979 19.0904 36.6158 18.9746C36.7747 18.8179 36.8638 18.6058 36.8638 18.3847C36.8638 18.1636 36.7747 17.9515 36.6158 17.7948L35.9188 17.11C35.7593 16.954 35.5434 16.8663 35.3184 16.8663C35.0933 16.8663 34.8774 16.954 34.7179 17.11L33.4205 18.3847L35.7629 20.686C35.8808 20.8019 35.947 20.959 35.947 21.1228C35.947 21.2866 35.8808 21.4437 35.7629 21.5595C35.645 21.6754 35.4851 21.7404 35.3184 21.7404C35.1516 21.7404 34.9917 21.6754 34.8738 21.5595L32.088 18.8226C31.9701 18.7068 31.9039 18.5497 31.9039 18.3859C31.9039 18.2221 31.9701 18.065 32.088 17.9491L33.83 16.2377C34.2252 15.8504 34.7605 15.6328 35.3187 15.6326C35.8769 15.6323 36.4124 15.8495 36.8079 16.2365Z" fill="black"/>
<path d="M32.1429 40.1437C31.1669 40.1388 30.2247 39.7931 29.4841 39.1686C28.6864 38.5063 27.6641 38.1633 26.6207 38.2075C25.6204 38.1587 24.6373 38.4766 23.862 39.0994C22.9769 39.8005 21.8667 40.1698 20.7301 40.1413H20.6663C17.3217 40.1117 16.2412 37.9467 16.1968 37.8545L17.333 37.3257V37.3201C17.3657 37.3843 18.1563 38.8846 20.6794 38.9052H20.7367C21.6141 38.9344 22.4714 38.6432 23.1433 38.0881C24.1299 37.3184 25.3635 36.9222 26.6223 36.9714C27.9318 36.9281 29.2134 37.3537 30.2274 38.1689C30.7497 38.6394 31.431 38.9034 32.1396 38.91C32.1824 38.91 32.2237 38.91 32.2706 38.91C33.6889 38.7987 35.0175 38.1843 36.0083 37.1809C36.1199 37.0594 36.2757 36.9861 36.4421 36.9775C36.6085 36.9688 36.7716 37.0254 36.8956 37.1347C36.9571 37.1886 37.0072 37.254 37.043 37.3269C37.0787 37.3999 37.099 37.4789 37.1035 37.5597C37.1081 37.6406 37.0964 37.7218 37.0692 37.7982C37.0419 37.8746 36.9997 37.945 36.9447 38.0053C35.729 39.2645 34.0756 40.0284 32.3132 40.1461C32.252 40.1428 32.1965 40.1437 32.1429 40.1437Z" fill="#5055B1"/>
</g>
<defs>
<clipPath id="clip0_2103_820">
<rect width="57" height="56" fill="white"/>
</clipPath>
</defs>
</svg>
