<svg width="16" height="17" viewBox="0 0 16 17" fill="none" xmlns="http://www.w3.org/2000/svg">
<path d="M0 0H15.9996V16.1716H0V0Z" fill="white" fill-opacity="0.01"/>
<path d="M2.00003 12.4657C2.00003 9.87035 2.00003 3.70602 2.00003 3.70602C2.00003 2.58961 2.89544 1.68457 3.99998 1.68457H11.9998V10.4442C11.9998 10.4442 5.74414 10.4442 3.99998 10.4442C2.90001 10.4442 2.00003 11.3485 2.00003 12.4657Z" fill="white"/>
<path fill-rule="evenodd" clip-rule="evenodd" d="M3.99994 2.35838C3.26358 2.35838 2.66664 2.96173 2.66664 3.70601H1.99999H1.33334C1.33334 2.21746 2.52722 1.01074 3.99994 1.01074H11.9997C12.3679 1.01074 12.6664 1.31242 12.6664 1.68456V10.4442C12.6664 10.8163 12.3679 11.118 11.9997 11.118V10.4442C11.9997 11.118 11.9998 11.118 11.9997 11.118H3.99994C3.26701 11.118 2.66664 11.7218 2.66664 12.4656C2.66664 12.8378 2.36817 13.1395 1.99999 13.1395C1.63181 13.1395 1.33334 12.8378 1.33334 12.4656V3.70601C1.33334 3.70597 1.33334 3.70601 1.99999 3.70601C2.66664 3.70601 2.66664 3.70597 2.66664 3.70601V10.132C3.05943 9.90199 3.51508 9.77038 3.99994 9.77038H11.3331V2.35838H3.99994Z" fill="white"/>
<path fill-rule="evenodd" clip-rule="evenodd" d="M13.9996 1.68457C14.3678 1.68457 14.6662 1.98625 14.6662 2.35839V14.4871C14.6662 14.8593 14.3678 15.1609 13.9996 15.1609H3.99985C2.52713 15.1609 1.33325 13.9542 1.33325 12.4657C1.33325 10.9771 2.52713 9.77039 3.99985 9.77039H11.9993C11.9994 9.77039 11.9996 9.77039 11.9996 10.4442C11.9996 11.118 11.9996 11.118 11.9996 11.118H3.99985C3.26349 11.118 2.66655 11.7214 2.66655 12.4657C2.66655 13.2099 3.26349 13.8133 3.99985 13.8133H13.3329V2.35839C13.3329 1.98625 13.6314 1.68457 13.9996 1.68457ZM12.6663 10.4442C12.6663 10.8163 12.3677 11.118 11.9996 11.118L11.9996 10.4442L11.9993 9.77039C12.3675 9.77039 12.6663 10.0721 12.6663 10.4442Z" fill="white"/>
<path fill-rule="evenodd" clip-rule="evenodd" d="M3.66656 12.4657C3.66656 12.0935 3.96503 11.7918 4.33321 11.7918H11.6664C12.0345 11.7918 12.333 12.0935 12.333 12.4657C12.333 12.8378 12.0345 13.1395 11.6664 13.1395H4.33321C3.96503 13.1395 3.66656 12.8378 3.66656 12.4657Z" fill="white"/>
</svg>
