<svg width="11" height="11" viewBox="0 0 11 11" fill="none" xmlns="http://www.w3.org/2000/svg">
<path d="M7.91515 5.41994C7.91515 6.75408 6.83372 7.83562 5.4997 7.83562C4.16569 7.83562 3.08425 6.75408 3.08425 5.41994C3.08425 4.08579 4.16569 3.00425 5.4997 3.00425C6.83372 3.00425 7.91515 4.08579 7.91515 5.41994Z" fill="white"/>
<path fill-rule="evenodd" clip-rule="evenodd" d="M5.5 11.0011C8.53757 11.0011 11 8.53841 11 5.50054C11 2.46268 8.53757 0 5.5 0C2.46243 0 0 2.46268 0 5.50054C0 8.53841 2.46243 11.0011 5.5 11.0011ZM5.49931 9.65854C7.79578 9.65854 9.65744 7.79669 9.65744 5.5C9.65744 3.2033 7.79578 1.34146 5.49931 1.34146C3.20284 1.34146 1.34118 3.2033 1.34118 5.5C1.34118 7.79669 3.20284 9.65854 5.49931 9.65854Z" fill="white"/>
</svg>
