<svg width="15" height="15" viewBox="0 0 15 15" fill="none" xmlns="http://www.w3.org/2000/svg">
<path d="M0 0H14.9521V14.9521H0V0Z" fill="white" fill-opacity="0.01"/>
<path d="M0 0H14.9521V14.9521H0V0Z" fill="white" fill-opacity="0.01"/>
<path d="M2.49207 9.34509H12.4602V13.0831C12.4602 13.4272 12.1812 13.7061 11.8372 13.7061H3.11507C2.77099 13.7061 2.49207 13.4272 2.49207 13.0831V9.34509Z" fill="#06BBC0"/>
<path fill-rule="evenodd" clip-rule="evenodd" d="M1.86887 9.34511C1.86887 9.00104 2.1478 8.72211 2.49187 8.72211H12.46C12.804 8.72211 13.083 9.00104 13.083 9.34511V13.0832C13.083 13.7713 12.5251 14.3292 11.837 14.3292H3.11488C2.42673 14.3292 1.86887 13.7713 1.86887 13.0832V9.34511ZM3.11488 9.96812V13.0832H11.837V9.96812H3.11488Z" fill="white"/>
<path fill-rule="evenodd" clip-rule="evenodd" d="M1.86902 1.86903C1.86902 1.18087 2.42688 0.623016 3.11503 0.623016H11.8371C12.5253 0.623016 13.0831 1.18088 13.0831 1.86903V9.3451H11.8371V1.86903H3.11503V9.3451H1.86902V1.86903Z" fill="white"/>
<path fill-rule="evenodd" clip-rule="evenodd" d="M6.22995 11.5256C6.22995 11.1815 6.50888 10.9026 6.85296 10.9026H8.09897C8.44305 10.9026 8.72197 11.1815 8.72197 11.5256C8.72197 11.8697 8.44305 12.1486 8.09897 12.1486H6.85296C6.50888 12.1486 6.22995 11.8697 6.22995 11.5256Z" fill="white"/>
</svg>
