<svg width="23" height="22" viewBox="0 0 23 22" fill="none" xmlns="http://www.w3.org/2000/svg">
<path fill-rule="evenodd" clip-rule="evenodd" d="M15.308 5.33688C14.0207 4.41269 12.456 3.94367 10.866 4.0054C9.276 4.06713 7.75334 4.65602 6.54336 5.67716C5.33339 6.69831 4.50657 8.09225 4.19614 9.63437C3.88571 11.1765 4.10975 12.777 4.83214 14.1779C5.55454 15.5789 6.73323 16.6987 8.17829 17.357C9.62334 18.0153 11.2506 18.1736 12.7979 17.8066C14.3451 17.4395 15.7222 16.5684 16.7074 15.3337C17.6925 14.0989 18.2282 12.5723 18.2282 11C18.2282 9.89544 19.1344 9 20.2522 9C21.3701 9 22.2762 9.89544 22.2762 11C22.2762 13.4708 21.4344 15.8697 19.8864 17.81C18.3383 19.7504 16.1743 21.1193 13.7429 21.6961C11.3115 22.2729 8.75433 22.024 6.48353 20.9896C4.21273 19.9552 2.36051 18.1954 1.22531 15.9939C0.0901095 13.7924 -0.261943 11.2773 0.225878 8.85401C0.713698 6.43068 2.01298 4.2402 3.91437 2.63554C5.81575 1.03088 8.2085 0.105489 10.7071 0.00848515C13.2056 -0.0885187 15.6645 0.648512 17.6874 2.10082C18.5918 2.75007 18.7922 4.0008 18.1352 4.89442C17.4781 5.78804 16.2124 5.98613 15.308 5.33688Z" fill="url(#paint0_angular_4016_40)"/>
<defs>
<radialGradient id="paint0_angular_4016_40" cx="0" cy="0" r="1" gradientUnits="userSpaceOnUse" gradientTransform="translate(11.1441 11) rotate(-16.2053) scale(8.95802 8.86836)">
<stop stop-color="#2346B1" stop-opacity="0"/>
<stop offset="1" stop-color="#3D8FEF"/>
</radialGradient>
</defs>
</svg>
