<svg width="30" height="30" viewBox="0 0 30 30" fill="none" xmlns="http://www.w3.org/2000/svg">
<path d="M15 15C16.3807 15 17.5 13.8807 17.5 12.5C17.5 11.1193 16.3807 10 15 10C13.6193 10 12.5 11.1193 12.5 12.5C12.5 13.8807 13.6193 15 15 15Z" fill="#4DAC27"/>
<path d="M22.5 12.5C22.5 13.1904 21.9404 13.75 21.25 13.75C20.5596 13.75 20 13.1904 20 12.5C20 11.8096 20.5596 11.25 21.25 11.25C21.9404 11.25 22.5 11.8096 22.5 12.5Z" fill="#4DAC27"/>
<path d="M8.75 13.75C9.44036 13.75 10 13.1904 10 12.5C10 11.8096 9.44036 11.25 8.75 11.25C8.05964 11.25 7.5 11.8096 7.5 12.5C7.5 13.1904 8.05964 13.75 8.75 13.75Z" fill="#4DAC27"/>
<path fill-rule="evenodd" clip-rule="evenodd" d="M2.5 6.25C2.5 4.17893 4.17893 2.5 6.25 2.5H23.75C25.8211 2.5 27.5 4.17893 27.5 6.25V18.75C27.5 20.8211 25.8211 22.5 23.75 22.5H6.25C4.17893 22.5 2.5 20.8211 2.5 18.75V6.25ZM6.25 5C5.55964 5 5 5.55964 5 6.25V18.75C5 19.4404 5.55964 20 6.25 20H23.75C24.4404 20 25 19.4404 25 18.75V6.25C25 5.55964 24.4404 5 23.75 5H6.25Z" fill="#4DAC27"/>
<path d="M3.75 26.25C3.75 25.5596 4.30964 25 5 25H25C25.6904 25 26.25 25.5596 26.25 26.25C26.25 26.9404 25.6904 27.5 25 27.5H5C4.30964 27.5 3.75 26.9404 3.75 26.25Z" fill="#4DAC27"/>
</svg>
