<svg width="21" height="22" viewBox="0 0 21 22" fill="none" xmlns="http://www.w3.org/2000/svg">
<path d="M10.298 10.7786C8.84871 10.7786 7.64772 10.2921 6.69505 9.31896C5.74235 8.34585 5.26601 7.11912 5.26601 5.63877C5.26601 4.15841 5.74235 2.93186 6.69505 1.95912C7.64772 0.986372 8.84871 0.5 10.298 0.5C11.7473 0.5 12.9509 0.986372 13.9089 1.95912C14.8668 2.93186 15.3458 4.15841 15.3458 5.63877C15.3458 7.11912 14.8668 8.34585 13.9089 9.31896C12.9509 10.2921 11.7473 10.7786 10.298 10.7786ZM0.305908 21.5V17.9471C0.305908 17.1188 0.513458 16.3874 0.928558 15.7528C1.34364 15.1183 1.88528 14.6355 2.55348 14.3044C3.8759 13.6782 5.17393 13.2076 6.44756 12.8926C7.72119 12.5776 9.00443 12.4201 10.2973 12.4201C11.6116 12.4201 12.9017 12.5801 14.1674 12.8999C15.4332 13.2197 16.7198 13.686 18.0273 14.2987C18.7107 14.6192 19.2613 15.0974 19.6791 15.7332C20.097 16.369 20.3059 17.1059 20.3059 17.9438V21.5H0.305908Z" fill="#4DAC27"/>
</svg>
