<svg width="25" height="24" viewBox="0 0 25 24" fill="none" xmlns="http://www.w3.org/2000/svg">
<path d="M22.3118 23.7964L14.0242 15.5207C13.4056 16.0128 12.6828 16.3998 11.8557 16.6815C11.0287 16.9632 10.1393 17.1041 9.18757 17.1041C6.81765 17.1041 4.8098 16.2806 3.164 14.6337C1.51821 12.9868 0.695312 10.9935 0.695312 8.65386C0.695312 6.3142 1.51878 4.3209 3.1657 2.67397C4.81263 1.02707 6.80942 0.203613 9.15605 0.203613C11.5027 0.203613 13.496 1.02707 15.1359 2.67397C16.7758 4.3209 17.5958 6.31525 17.5958 8.65701C17.5958 9.58929 17.4586 10.4633 17.1842 11.2791C16.9098 12.0949 16.5122 12.8451 15.9914 13.5297L24.3059 21.8082L22.3118 23.7964ZM9.17077 14.3255C10.7485 14.3255 12.084 13.7735 13.1773 12.6695C14.2706 11.5655 14.8172 10.2269 14.8172 8.65386C14.8172 7.08079 14.27 5.74224 13.1756 4.63818C12.0811 3.53415 10.7462 2.98214 9.17077 2.98214C7.58369 2.98214 6.23744 3.53415 5.132 4.63818C4.02658 5.74224 3.47387 7.08079 3.47387 8.65386C3.47387 10.2269 4.026 11.5655 5.13026 12.6695C6.23452 13.7735 7.58136 14.3255 9.17077 14.3255Z" fill="#4DAC27"/>
</svg>
