<svg width="30" height="30" viewBox="0 0 30 30" fill="none" xmlns="http://www.w3.org/2000/svg">
<path fill-rule="evenodd" clip-rule="evenodd" d="M2.5 22.5V6.25C2.5 4.17893 4.17893 2.5 6.25 2.5H15C16.3807 2.5 17.5 3.61929 17.5 5H22.9501C24.7379 5 26.2771 6.26206 26.6274 8.0152L27.4262 12.0125C27.4745 12.2545 27.4989 12.5006 27.4989 12.7473V16.7436C27.4989 17.4834 27.28 18.2067 26.8699 18.8225L26.4567 19.4428C27.1108 20.288 27.5 21.3486 27.5 22.5C27.5 25.2614 25.2614 27.5 22.5 27.5C20.1702 27.5 18.2126 25.9065 17.6575 23.75H12.3425C11.7874 25.9065 9.8298 27.5 7.5 27.5C4.73858 27.5 2.5 25.2614 2.5 22.5ZM5 6.25C5 5.55964 5.55964 5 6.25 5H15V11.25C15 13.3211 16.6789 15 18.75 15H24.9989V16.7436C24.9989 16.9902 24.9259 17.2313 24.7892 17.4366L24.4766 17.9059C23.8703 17.6447 23.2021 17.5 22.5 17.5C20.1702 17.5 18.2126 19.0935 17.6575 21.25H12.3425C11.7874 19.0935 9.8298 17.5 7.5 17.5C6.58928 17.5 5.73543 17.7435 5 18.1689V6.25ZM20 22.5C20 23.8807 21.1193 25 22.5 25C23.8807 25 25 23.8807 25 22.5C25 21.1193 23.8807 20 22.5 20C21.1193 20 20 21.1193 20 22.5ZM17.5 7.5V11.25C17.5 11.9404 18.0596 12.5 18.75 12.5H24.9742L24.1759 8.50507C24.0591 7.92069 23.5461 7.5 22.9501 7.5H17.5ZM5 22.5C5 21.1193 6.11929 20 7.5 20C8.88071 20 10 21.1193 10 22.5C10 23.8807 8.88071 25 7.5 25C6.11929 25 5 23.8807 5 22.5Z" fill="#4DAC27"/>
</svg>
